  0
SECTION
  2
HEADER
  9
$ACADVER
  1
AC1009
  9
$DWGCODEPAGE
  3
dos850
  9
$INSBASE
 10
0.0
 20
0.0
 30
0.0
  9
$EXTMIN
 10
0.0
 20
0.0
 30
0.0
  9
$EXTMAX
 10
1000.0
 20
1000.0
 30
1000.0
  9
$LIMMIN
 10
0.0
 20
0.0
  9
$LIMMAX
 10
12.0
 20
9.0
  9
$ORTHOMODE
 70
     0
  9
$REGENMODE
 70
     1
  9
$FILLMODE
 70
     1
  9
$QTEXTMODE
 70
     0
  9
$MIRRTEXT
 70
     1
  9
$DRAGMODE
 70
     2
  9
$LTSCALE
 40
1.0
  9
$OSMODE
 70
    37
  9
$ATTMODE
 70
     1
  9
$TEXTSIZE
 40
0.2
  9
$TRACEWID
 40
0.05
  9
$TEXTSTYLE
  7
STANDARD
  9
$CLAYER
  8
0
  9
$CELTYPE
  6
BYLAYER
  9
$CECOLOR
 62
   256
  9
$DIMSCALE
 40
1.0
  9
$DIMASZ
 40
0.18
  9
$DIMEXO
 40
0.0625
  9
$DIMDLI
 40
0.38
  9
$DIMRND
 40
0.0
  9
$DIMDLE
 40
0.0
  9
$DIMEXE
 40
0.18
  9
$DIMTP
 40
0.0
  9
$DIMTM
 40
0.0
  9
$DIMTXT
 40
0.18
  9
$DIMCEN
 40
0.09
  9
$DIMTSZ
 40
0.0
  9
$DIMTOL
 70
     0
  9
$DIMLIM
 70
     0
  9
$DIMTIH
 70
     1
  9
$DIMTOH
 70
     1
  9
$DIMSE1
 70
     0
  9
$DIMSE2
 70
     0
  9
$DIMTAD
 70
     0
  9
$DIMZIN
 70
     0
  9
$DIMBLK
  1

  9
$DIMASO
 70
     1
  9
$DIMSHO
 70
     1
  9
$DIMPOST
  1

  9
$DIMAPOST
  1

  9
$DIMALT
 70
     0
  9
$DIMALTD
 70
     2
  9
$DIMALTF
 40
25.4
  9
$DIMLFAC
 40
1.0
  9
$DIMTOFL
 70
     0
  9
$DIMTVP
 40
0.0
  9
$DIMTIX
 70
     0
  9
$DIMSOXD
 70
     0
  9
$DIMSAH
 70
     0
  9
$DIMBLK1
  1

  9
$DIMBLK2
  1

  9
$DIMSTYLE
  2
STANDARD
  9
$DIMCLRD
 70
     0
  9
$DIMCLRE
 70
     0
  9
$DIMCLRT
 70
     0
  9
$DIMTFAC
 40
1.0
  9
$DIMGAP
 40
0.09
  9
$LUNITS
 70
     2
  9
$LUPREC
 70
     4
  9
$SKETCHINC
 40
0.1
  9
$FILLETRAD
 40
0.5
  9
$AUNITS
 70
     0
  9
$AUPREC
 70
     0
  9
$MENU
  1
.
  9
$ELEVATION
 40
0.0
  9
$PELEVATION
 40
0.0
  9
$THICKNESS
 40
0.0
  9
$LIMCHECK
 70
     0
  9
$CHAMFERA
 40
0.5
  9
$CHAMFERB
 40
0.5
  9
$SKPOLY
 70
     0
  9
$TDCREATE
 40
2454908.592337963
  9
$TDUPDATE
 40
2454908.592337963
  9
$TDINDWG
 40
0.0000000116
  9
$TDUSRTIMER
 40
0.0000000116
  9
$USRTIMER
 70
     1
  9
$ANGBASE
 50
0.0
  9
$ANGDIR
 70
     0
  9
$PDMODE
 70
     0
  9
$PDSIZE
 40
0.0
  9
$PLINEWID
 40
0.0
  9
$COORDS
 70
     1
  9
$SPLFRAME
 70
     0
  9
$SPLINETYPE
 70
     6
  9
$SPLINESEGS
 70
     8
  9
$ATTDIA
 70
     0
  9
$ATTREQ
 70
     1
  9
$HANDLING
 70
     1
  9
$HANDSEED
  5
97
  9
$SURFTAB1
 70
     6
  9
$SURFTAB2
 70
     6
  9
$SURFTYPE
 70
     6
  9
$SURFU
 70
     6
  9
$SURFV
 70
     6
  9
$UCSNAME
  2

  9
$UCSORG
 10
0.0
 20
0.0
 30
0.0
  9
$UCSXDIR
 10
1.0
 20
0.0
 30
0.0
  9
$UCSYDIR
 10
0.0
 20
1.0
 30
0.0
  9
$PUCSNAME
  2

  9
$PUCSORG
 10
0.0
 20
0.0
 30
0.0
  9
$PUCSXDIR
 10
1.0
 20
0.0
 30
0.0
  9
$PUCSYDIR
 10
0.0
 20
1.0
 30
0.0
  9
$USERI1
 70
     0
  9
$USERI2
 70
     0
  9
$USERI3
 70
     0
  9
$USERI4
 70
     0
  9
$USERI5
 70
     0
  9
$USERR1
 40
0.0
  9
$USERR2
 40
0.0
  9
$USERR3
 40
0.0
  9
$USERR4
 40
0.0
  9
$USERR5
 40
0.0
  9
$WORLDVIEW
 70
     1
  9
$SHADEDGE
 70
     3
  9
$SHADEDIF
 70
    70
  9
$TILEMODE
 70
     1
  9
$MAXACTVP
 70
    64
  9
$PLIMCHECK
 70
     0
  9
$PEXTMIN
 10
0.0
 20
0.0
 30
0.0
  9
$PEXTMAX
 10
1000.0
 20
1000.0
 30
0.0
  9
$PLIMMIN
 10
0.0
 20
0.0
  9
$PLIMMAX
 10
100.0
 20
100.0
  9
$UNITMODE
 70
     0
  9
$VISRETAIN
 70
     1
  9
$PLINEGEN
 70
     0
  9
$PSLTSCALE
 70
     1
  0
ENDSEC
  0
SECTION
  2
TABLES
  0
TABLE
  2
VPORT
 70
     1
  0
VPORT
  2
*ACTIVE
 70
     0
 10
0.0
 20
0.0
 11
1.0
 21
1.0
 12
3.211392857142856
 22
0.3333333333333339
 13
0.0
 23
0.0
 14
0.5
 24
0.5
 15
0.5
 25
0.5
 16
0.0
 26
0.0
 36
1.0
 17
0.0
 27
0.0
 37
0.0
 40
3.62189524484354
 41
1.972972972850329
 42
50.0
 43
0.0
 44
0.0
 50
0.0
 51
0.0
 71
     0
 72
   100
 73
     1
 74
     3
 75
     0
 76
     0
 77
     0
 78
     0
  0
ENDTAB
  0
TABLE
  2
LTYPE
 70
     3
  0
LTYPE
  2
CONTINUOUS
 70
     0
  3
Solid line
 72
    65
 73
     0
 40
0.0
  0
LTYPE
  2
GESTRICHELT
 70
     0
  3

 72
    65
 73
     2
 40
2.0
 49
1.0
 49
-1.0
  0
LTYPE
  2
MITTE
 70
     0
  3

 72
    65
 73
     4
 40
2.0
 49
0.45
 49
-0.5
 49
0.05
 49
-0.5
  0
ENDTAB
  0
TABLE
  2
LAYER
 70
     2
  0
LAYER
  2
0
 70
     0
 62
     7
  6
CONTINUOUS
  0
LAYER
  2
ATTRIB
 70
     0
 62
    -7
  6
CONTINUOUS
  0
ENDTAB
  0
TABLE
  2
STYLE
 70
     1
  0
STYLE
  2
STANDARD
 70
     0
 40
0.0
 41
1.0
 50
0.0
 71
     0
 42
0.2
  3
txt
  4

  0
ENDTAB
  0
TABLE
  2
VIEW
 70
     0
  0
ENDTAB
  0
TABLE
  2
UCS
 70
     0
  0
ENDTAB
  0
TABLE
  2
APPID
 70
     1
  0
APPID
  2
ACAD
 70
     0
  0
ENDTAB
  0
TABLE
  2
DIMSTYLE
 70
     1
  0
DIMSTYLE
  2
STANDARD
 70
     0
  3

  4

  5

  6

  7

 40
1.0
 41
0.18
 42
0.0625
 43
0.38
 44
0.18
 45
0.0
 46
0.0
 47
0.0
 48
0.0
140
0.18
141
0.09
142
0.0
143
25.4
144
1.0
145
0.0
146
1.0
147
0.09
 71
     0
 72
     0
 73
     1
 74
     1
 75
     0
 76
     0
 77
     0
 78
     0
170
     0
171
     2
172
     0
173
     0
174
     0
175
     0
176
     0
177
     0
178
     0
  0
ENDTAB
  0
ENDSEC
  0
SECTION
  2
BLOCKS
  0
BLOCK
  8
0
  2
$MODEL_SPACE
 70
     0
 10
0.0
 20
0.0
 30
0.0
  3
$MODEL_SPACE
  1

  0
ENDBLK
  5
21
  8
0
  0
BLOCK
 67
     1
  8
0
  2
$PAPER_SPACE
 70
     0
 10
0.0
 20
0.0
 30
0.0
  3
$PAPER_SPACE
  1

  0
ENDBLK
  5
1D
 67
     1
  8
0
  0
ENDSEC
  0
SECTION
  2
ENTITIES
  0
CIRCLE
  5
2D
  8
0
  6
CONTINUOUS
 62
     7
 10
0.0
 20
0.0
 30
0.0
 40
0.1925
  0
CIRCLE
  5
2E
  8
0
  6
CONTINUOUS
 62
     7
 10
0.0
 20
0.0
 30
0.0
 40
0.1875
  0
CIRCLE
  5
2F
  8
0
  6
CONTINUOUS
 62
     7
 10
0.0
 20
0.0
 30
0.0
 40
0.15625
  0
CIRCLE
  5
30
  8
0
  6
CONTINUOUS
 62
     7
 10
0.0
 20
0.0
 30
0.0
 40
0.0591506350946114
  0
CIRCLE
  5
31
  8
0
  6
CONTINUOUS
 62
     7
 10
0.0
 20
0.0
 30
0.0
 40
0.0375000000000002
  0
ARC
  5
32
  8
0
  6
CONTINUOUS
 62
     7
 10
-0.2255017101261232
 20
-0.1325284661863751
 30
0.0
 40
0.1666666666666712
 50
97.70987792965198
 51
113.048935911116
  0
ARC
  5
33
  8
0
  6
CONTINUOUS
 62
     7
 10
0.000000000000011
 20
0.0000000000000017
 30
0.0
 40
0.2915000000000109
 50
175.9016103058795
 51
184.0983896941212
  0
ARC
  5
34
  8
0
  6
CONTINUOUS
 62
     7
 10
-0.2255017101261254
 20
0.1325284661863711
 30
0.0
 40
0.1666666666666667
 50
246.9510640888842
 51
262.2901220703487
  0
LINE
  5
35
  8
0
  6
CONTINUOUS
 62
     7
 10
-0.2478612153434526
 20
-0.0326315480550128
 30
0.0
 11
-0.1955837471046738
 21
-0.0308382533308068
 31
0.0
  0
ARC
  5
36
  8
0
  6
CONTINUOUS
 62
     7
 10
0.0000000000000253
 20
0.0000000000000063
 30
0.0
 40
0.198000000000026
 50
188.9602241121502
 51
201.0397758878496
  0
LINE
  5
37
  8
0
  6
CONTINUOUS
 62
     7
 10
-0.1847996202254023
 20
-0.0710851627595181
 30
0.0
 11
-0.2309698831278221
 21
-0.0956708580912726
 31
0.0
  0
ARC
  5
38
  8
0
  6
CONTINUOUS
 62
     7
 10
-0.1290259764728727
 20
-0.227523873505047
 30
0.0
 40
0.1666666666666676
 50
127.7098779296517
 51
143.048935911116
  0
ARC
  5
39
  8
0
  6
CONTINUOUS
 62
     7
 10
-0.000000000000019
 20
-0.0000000000000068
 30
0.0
 40
0.2914999999999799
 50
205.9016103058794
 51
214.098389694122
  0
ARC
  5
3A
  8
0
  6
CONTINUOUS
 62
     7
 10
-0.2615544426592459
 20
0.0020221633789231
 30
0.0
 40
0.1666666666666683
 50
276.9510640888847
 51
292.2901220703489
  0
LINE
  5
3B
  8
0
  6
CONTINUOUS
 62
     7
 10
-0.1983383350728087
 20
-0.1521903572521799
 30
0.0
 11
-0.1539613668945952
 21
-0.1244985843451556
 31
0.0
  0
ARC
  5
3C
  8
0
  6
CONTINUOUS
 62
     7
 10
0.0000000000000014
 20
-0.0000000000000001
 30
0.0
 40
0.198000000000001
 50
218.9602241121492
 51
231.0397758878501
  0
LINE
  5
3D
  8
0
  6
CONTINUOUS
 62
     7
 10
-0.124498584345156
 20
-0.1539613668945954
 30
0.0
 11
-0.1521903572521804
 21
-0.1983383350728089
 31
0.0
  0
ARC
  5
3E
  8
0
  6
CONTINUOUS
 62
     7
 10
0.0020221633789265
 20
-0.2615544426592467
 30
0.0
 40
0.1666666666666723
 50
157.7098779296514
 51
173.0489359111154
  0
ARC
  5
3F
  8
0
  6
CONTINUOUS
 62
     7
 10
-0.0000000000000066
 20
-0.0000000000000088
 30
0.0
 40
0.2914999999999889
 50
235.901610305879
 51
244.0983896941214
  0
ARC
  5
40
  8
0
  6
CONTINUOUS
 62
     7
 10
-0.2275238735050426
 20
-0.1290259764728766
 30
0.0
 40
0.1666666666666616
 50
306.9510640888836
 51
322.2901220703487
  0
LINE
  5
41
  8
0
  6
CONTINUOUS
 62
     7
 10
-0.0956708580912724
 20
-0.2309698831278214
 30
0.0
 11
-0.0710851627595181
 21
-0.184799620225402
 31
0.0
  0
ARC
  5
42
  8
0
  6
CONTINUOUS
 62
     7
 10
0.0000000000000065
 20
0.0000000000000133
 30
0.0
 40
0.1980000000000148
 50
248.9602241121491
 51
261.0397758878492
  0
LINE
  5
43
  8
0
  6
CONTINUOUS
 62
     7
 10
-0.030838253330807
 20
-0.1955837471046736
 30
0.0
 11
-0.032631548055013
 21
-0.2478612153434528
 31
0.0
  0
ARC
  5
44
  8
0
  6
CONTINUOUS
 62
     7
 10
0.1325284661863749
 20
-0.2255017101261237
 30
0.0
 40
0.166666666666671
 50
187.7098779296518
 51
203.0489359111158
  0
ARC
  5
45
  8
0
  6
CONTINUOUS
 62
     7
 10
-0.0000000000000002
 20
-0.0000000000000118
 30
0.0
 40
0.2914999999999882
 50
265.9016103058788
 51
274.0983896941212
  0
ARC
  5
46
  8
0
  6
CONTINUOUS
 62
     7
 10
-0.1325284661863696
 20
-0.2255017101261269
 30
0.0
 40
0.1666666666666647
 50
336.9510640888844
 51
352.2901220703492
  0
LINE
  5
47
  8
0
  6
CONTINUOUS
 62
     7
 10
0.0326315480550128
 20
-0.2478612153434521
 30
0.0
 11
0.0308382533308068
 21
-0.1955837471046738
 31
0.0
  0
ARC
  5
48
  8
0
  6
CONTINUOUS
 62
     7
 10
-0.0000000000000014
 20
-0.0000000000000032
 30
0.0
 40
0.1979999999999971
 50
278.9602241121501
 51
291.0397758878512
  0
LINE
  5
49
  8
0
  6
CONTINUOUS
 62
     7
 10
0.0710851627595177
 20
-0.1847996202254017
 30
0.0
 11
0.0956708580912724
 21
-0.2309698831278219
 31
0.0
  0
ARC
  5
4A
  8
0
  6
CONTINUOUS
 62
     7
 10
0.2275238735050501
 20
-0.1290259764728696
 30
0.0
 40
0.166666666666672
 50
217.7098779296519
 51
233.0489359111159
  0
ARC
  5
4B
  8
0
  6
CONTINUOUS
 62
     7
 10
-0.0000000000000052
 20
0.0000000000000112
 30
0.0
 40
0.2915000000000123
 50
295.9016103058789
 51
304.0983896941206
  0
ARC
  5
4C
  8
0
  6
CONTINUOUS
 62
     7
 10
-0.0020221633789203
 20
-0.2615544426592433
 30
0.0
 40
0.1666666666666651
 50
6.951064088883692
 51
22.29012207034846
  0
LINE
  5
4D
  8
0
  6
CONTINUOUS
 62
     7
 10
0.1521903572521799
 20
-0.1983383350728087
 30
0.0
 11
0.1244985843451556
 21
-0.1539613668945953
 31
0.0
  0
ARC
  5
4E
  8
0
  6
CONTINUOUS
 62
     7
 10
0.000000000000019
 20
-0.0000000000000204
 30
0.0
 40
0.1979999999999722
 50
308.9602241121489
 51
321.0397758878516
  0
LINE
  5
4F
  8
0
  6
CONTINUOUS
 62
     7
 10
0.1539613668945953
 20
-0.124498584345156
 30
0.0
 11
0.198338335072809
 21
-0.1521903572521805
 31
0.0
  0
ARC
  5
50
  8
0
  6
CONTINUOUS
 62
     7
 10
0.2615544426592451
 20
0.0020221633789246
 30
0.0
 40
0.16666666666667
 50
247.7098779296517
 51
263.0489359111158
  0
ARC
  5
51
  8
0
  6
CONTINUOUS
 62
     7
 10
-0.0000000000000045
 20
0.0000000000000011
 30
0.0
 40
0.2915000000000043
 50
325.9016103058792
 51
334.0983896941211
  0
ARC
  5
52
  8
0
  6
CONTINUOUS
 62
     7
 10
0.1290259764728701
 20
-0.2275238735050509
 30
0.0
 40
0.1666666666666717
 50
36.95106408888451
 51
52.29012207034864
  0
LINE
  5
53
  8
0
  6
CONTINUOUS
 62
     7
 10
0.2309698831278212
 20
-0.0956708580912723
 30
0.0
 11
0.1847996202254019
 21
-0.0710851627595181
 31
0.0
  0
ARC
  5
54
  8
0
  6
CONTINUOUS
 62
     7
 10
-0.0000000000000044
 20
0.0000000000000009
 30
0.0
 40
0.1980000000000045
 50
338.9602241121497
 51
351.0397758878504
  0
LINE
  5
55
  8
0
  6
CONTINUOUS
 62
     7
 10
-0.1955837471046739
 20
0.0308382533308069
 30
0.0
 11
-0.2478612153434528
 21
0.0326315480550129
 31
0.0
  0
ARC
  5
56
  8
0
  6
CONTINUOUS
 62
     7
 10
0.000000000000002
 20
-0.0000000000000015
 30
0.0
 40
0.1980000000000025
 50
158.9602241121493
 51
171.0397758878501
  0
LINE
  5
57
  8
0
  6
CONTINUOUS
 62
     7
 10
-0.2309698831278216
 20
0.0956708580912725
 30
0.0
 11
-0.184799620225402
 21
0.0710851627595181
 31
0.0
  0
ARC
  5
58
  8
0
  6
CONTINUOUS
 62
     7
 10
-0.1290259764728755
 20
0.2275238735050466
 30
0.0
 40
0.166666666666665
 50
216.9510640888844
 51
232.2901220703491
  0
ARC
  5
59
  8
0
  6
CONTINUOUS
 62
     7
 10
0.0000000000000075
 20
-0.0000000000000057
 30
0.0
 40
0.2915000000000093
 50
145.9016103058789
 51
154.0983896941207
  0
ARC
  5
5A
  8
0
  6
CONTINUOUS
 62
     7
 10
-0.2615544426592429
 20
-0.0020221633789164
 30
0.0
 40
0.1666666666666614
 50
67.70987792965123
 51
83.04893591111623
  0
LINE
  5
5B
  8
0
  6
CONTINUOUS
 62
     7
 10
-0.1539613668945951
 20
0.1244985843451557
 30
0.0
 11
-0.1983383350728088
 21
0.1521903572521802
 31
0.0
  0
ARC
  5
5C
  8
0
  6
CONTINUOUS
 62
     7
 10
0.0000000000000034
 20
-0.0000000000000065
 30
0.0
 40
0.1980000000000071
 50
128.9602241121491
 51
141.0397758878497
  0
LINE
  5
5D
  8
0
  6
CONTINUOUS
 62
     7
 10
-0.1521903572521802
 20
0.1983383350728089
 30
0.0
 11
-0.1244985843451557
 21
0.1539613668945952
 31
0.0
  0
ARC
  5
5E
  8
0
  6
CONTINUOUS
 62
     7
 10
0.0020221633789258
 20
0.2615544426592451
 30
0.0
 40
0.166666666666671
 50
186.9510640888842
 51
202.2901220703482
  0
ARC
  5
5F
  8
0
  6
CONTINUOUS
 62
     7
 10
-0.0000000000000069
 20
0.0000000000000161
 30
0.0
 40
0.2914999999999825
 50
115.9016103058792
 51
124.0983896941217
  0
ARC
  5
60
  8
0
  6
CONTINUOUS
 62
     7
 10
-0.227523873505047
 20
0.1290259764728726
 30
0.0
 40
0.1666666666666675
 50
37.70987792965172
 51
53.04893591111608
  0
LINE
  5
61
  8
0
  6
CONTINUOUS
 62
     7
 10
-0.071085162759518
 20
0.1847996202254021
 30
0.0
 11
-0.0956708580912726
 21
0.230969883127822
 31
0.0
  0
ARC
  5
62
  8
0
  6
CONTINUOUS
 62
     7
 10
0.0000000000000014
 20
-0.000000000000009
 30
0.0
 40
0.1980000000000092
 50
98.96022411214952
 51
111.0397758878499
  0
LINE
  5
63
  8
0
  6
CONTINUOUS
 62
     7
 10
-0.0326315480550129
 20
0.2478612153434527
 30
0.0
 11
-0.0308382533308069
 21
0.1955837471046738
 31
0.0
  0
ARC
  5
64
  8
0
  6
CONTINUOUS
 62
     7
 10
0.1325284661863762
 20
0.225501710126124
 30
0.0
 40
0.1666666666666722
 50
156.9510640888844
 51
172.2901220703485
  0
ARC
  5
65
  8
0
  6
CONTINUOUS
 62
     7
 10
0.0000000000000004
 20
-0.0000000000000039
 30
0.0
 40
0.2915000000000039
 50
85.90161030587906
 51
94.0983896941211
  0
ARC
  5
66
  8
0
  6
CONTINUOUS
 62
     7
 10
-0.1325284661863731
 20
0.2255017101261255
 30
0.0
 40
0.1666666666666689
 50
7.709877929651192
 51
23.04893591111555
  0
LINE
  5
67
  8
0
  6
CONTINUOUS
 62
     7
 10
0.0308382533308069
 20
0.1955837471046738
 30
0.0
 11
0.0326315480550129
 21
0.2478612153434527
 31
0.0
  0
ARC
  5
68
  8
0
  6
CONTINUOUS
 62
     7
 10
-0.0000000000000003
 20
-0.0000000000000027
 30
0.0
 40
0.1980000000000026
 50
68.96022411214963
 51
81.03977588785052
  0
LINE
  5
69
  8
0
  6
CONTINUOUS
 62
     7
 10
0.0956708580912724
 20
0.2309698831278212
 30
0.0
 11
0.0710851627595182
 21
0.184799620225402
 31
0.0
  0
ARC
  5
6A
  8
0
  6
CONTINUOUS
 62
     7
 10
0.2275238735050469
 20
0.1290259764728754
 30
0.0
 40
0.1666666666666651
 50
126.9510640888844
 51
142.2901220703493
  0
ARC
  5
6B
  8
0
  6
CONTINUOUS
 62
     7
 10
0.0000000000000013
 20
0.0000000000000048
 30
0.0
 40
0.2914999999999953
 50
55.90161030587856
 51
64.09838969412081
  0
ARC
  5
6C
  8
0
  6
CONTINUOUS
 62
     7
 10
-0.002022163378916
 20
0.2615544426592434
 30
0.0
 40
0.1666666666666615
 50
337.7098779296511
 51
353.048935911116
  0
LINE
  5
6D
  8
0
  6
CONTINUOUS
 62
     7
 10
0.1244985843451557
 20
0.1539613668945948
 30
0.0
 11
0.1521903572521806
 21
0.198338335072809
 31
0.0
  0
ARC
  5
6E
  8
0
  6
CONTINUOUS
 62
     7
 10
0.0000000000000041
 20
0.0000000000000053
 30
0.0
 40
0.1979999999999934
 50
38.96022411214901
 51
51.0397758878504
  0
LINE
  5
6F
  8
0
  6
CONTINUOUS
 62
     7
 10
0.1983383350728087
 20
0.1521903572521798
 30
0.0
 11
0.1539613668945953
 21
0.1244985843451555
 31
0.0
  0
ARC
  5
70
  8
0
  6
CONTINUOUS
 62
     7
 10
0.2615544426592452
 20
-0.0020221633789223
 30
0.0
 40
0.1666666666666673
 50
96.95106408888434
 51
112.2901220703488
  0
ARC
  5
71
  8
0
  6
CONTINUOUS
 62
     7
 10
0.0000000000000192
 20
0.0000000000000086
 30
0.0
 40
0.291499999999979
 50
25.90161030587906
 51
34.09838969412169
  0
ARC
  5
72
  8
0
  6
CONTINUOUS
 62
     7
 10
0.1290259764728707
 20
0.2275238735050483
 30
0.0
 40
0.16666666666667
 50
307.709877929652
 51
323.048935911116
  0
LINE
  5
73
  8
0
  6
CONTINUOUS
 62
     7
 10
0.184799620225402
 20
0.0710851627595178
 30
0.0
 11
0.2309698831278221
 21
0.0956708580912724
 31
0.0
  0
ARC
  5
74
  8
0
  6
CONTINUOUS
 62
     7
 10
-0.0000000000000058
 20
-0.0000000000000027
 30
0.0
 40
0.1980000000000061
 50
8.960224112149959
 51
21.03977588785056
  0
LINE
  5
75
  8
0
  6
CONTINUOUS
 62
     7
 10
0.2478612153434522
 20
0.0326315480550127
 30
0.0
 11
0.1955837471046738
 21
0.0308382533308067
 31
0.0
  0
ARC
  5
76
  8
0
  6
CONTINUOUS
 62
     7
 10
0.2255017101261253
 20
-0.1325284661863711
 30
0.0
 40
0.1666666666666667
 50
66.95106408888401
 51
82.29012207034877
  0
ARC
  5
77
  8
0
  6
CONTINUOUS
 62
     7
 10
0.0000000000000014
 20
0.0000000000000017
 30
0.0
 40
0.2914999999999987
 50
355.9016103058786
 51
4.098389694120613
  0
ARC
  5
78
  8
0
  6
CONTINUOUS
 62
     7
 10
0.2255017101261252
 20
0.1325284661863685
 30
0.0
 40
0.1666666666666646
 50
277.7098779296516
 51
293.0489359111162
  0
LINE
  5
79
  8
0
  6
CONTINUOUS
 62
     7
 10
0.1955837471046739
 20
-0.0308382533308071
 30
0.0
 11
0.247861215343453
 21
-0.0326315480550131
 31
0.0
  0
LINE
  5
7A
  8
0
  6
MITTE
 62
     3
 10
-0.2046119220100633
 20
0.0
 30
0.0
 11
0.2046119220100633
 21
0.0
 31
0.0
  0
LINE
  5
7B
  8
0
  6
MITTE
 62
     3
 10
0.0
 20
-0.2046119220100633
 30
0.0
 11
0.0
 21
0.2046119220100633
 31
0.0
  0
ATTDEF
  5
7C
  8
ATTRIB
 10
0.0
 20
0.0
 30
0.0
 40
1.0
  1
W.M.Berg
  3

  2
Company
 70
     9
  0
ATTDEF
  5
7D
  8
ATTRIB
 10
0.0
 20
0.0
 30
0.0
 40
1.0
  1
PSW24B-12
  3

  2
NB
 70
     9
  0
ATTDEF
  5
7E
  8
ATTRIB
 10
0.0
 20
0.0
 30
0.0
 40
1.0
  1
PSW24 to PSW64
  3

  2
NN
 70
     9
  0
ATTDEF
  5
7F
  8
ATTRIB
 10
0.0
 20
0.0
 30
0.0
 40
1.0
  1
Pinion Shafts - 24, 32, 48 and 64 Pitch AGMA Quality 4 - Brass and Cold Rolled Steel 20° Pressure Angle
  3

  2
NT
 70
     9
  0
ATTDEF
  5
80
  8
ATTRIB
 10
0.0
 20
0.0
 30
0.0
 40
1.0
  1
PSW24B-12
  3

  2
LINA
 70
     9
  0
ATTDEF
  5
81
  8
ATTRIB
 10
0.0
 20
0.0
 30
0.0
 40
1.0
  1
PSW24B-12
  3

  2
PN
 70
     9
  0
ATTDEF
  5
82
  8
ATTRIB
 10
0.0
 20
0.0
 30
0.0
 40
1.0
  1
PINION SHAFT SPUR GEAR
  3

  2
DES
 70
     9
  0
ATTDEF
  5
83
  8
ATTRIB
 10
0.0
 20
0.0
 30
0.0
 40
1.0
  1
Master Inch/Metric Catalog
  3

  2
CN
 70
     9
  0
ATTDEF
  5
84
  8
ATTRIB
 10
0.0
 20
0.0
 30
0.0
 40
1.0
  1
B165
  3

  2
CP
 70
     9
  0
ATTDEF
  5
85
  8
ATTRIB
 10
0.0
 20
0.0
 30
0.0
 40
1.0
  1
Brass Alloy 360
  3

  2
MAT
 70
     9
  0
ATTDEF
  5
86
  8
ATTRIB
 10
0.0
 20
0.0
 30
0.0
 40
1.0
  1
24
  3

  2
P
 70
     9
  0
ATTDEF
  5
87
  8
ATTRIB
 10
0.0
 20
0.0
 30
0.0
 40
1.0
  1
20
  3

  2
PA
 70
     9
  0
ATTDEF
  5
88
  8
ATTRIB
 10
0.0
 20
0.0
 30
0.0
 40
1.0
  1
12
  3

  2
N
 70
     9
  0
ATTDEF
  5
89
  8
ATTRIB
 10
0.0
 20
0.0
 30
0.0
 40
1.0
  1
0.5000
  3

  2
PD
 70
     9
  0
ATTDEF
  5
8A
  8
ATTRIB
 10
0.0
 20
0.0
 30
0.0
 40
1.0
  1
0.583
  3

  2
OD
 70
     9
  0
ATTDEF
  5
8B
  8
ATTRIB
 10
0.0
 20
0.0
 30
0.0
 40
1.0
  1
0.375
  3

  2
D
 70
     9
  0
ATTDEF
  5
8C
  8
ATTRIB
 10
0.0
 20
0.0
 30
0.0
 40
1.0
  1
5/16
  3

  2
F
 70
     9
  0
ATTDEF
  5
8D
  8
ATTRIB
 10
0.0
 20
0.0
 30
0.0
 40
1.0
  1
0.7500
  3

  2
L
 70
     9
  0
ATTDEF
  5
8E
  8
ATTRIB
 10
0.0
 20
0.0
 30
0.0
 40
1.0
  1
0.3125
  3

  2
F1
 70
     9
  0
ATTDEF
  5
8F
  8
ATTRIB
 10
0.0
 20
0.0
 30
0.0
 40
1.0
  1
0.0520
  3

  2
MM
 70
     9
  0
ATTDEF
  5
90
  8
ATTRIB
 10
0.0
 20
0.0
 30
0.0
 40
1.0
  1
DUMMY
  3

  2
KT
 70
     9
  0
ENDSEC
  0
EOF
