  0
SECTION
  2
HEADER
  9
$ACADVER
  1
AC1009
  9
$DWGCODEPAGE
  3
dos850
  9
$INSBASE
 10
0.0
 20
0.0
 30
0.0
  9
$EXTMIN
 10
0.0
 20
0.0
 30
0.0
  9
$EXTMAX
 10
1000.0
 20
1000.0
 30
1000.0
  9
$LIMMIN
 10
0.0
 20
0.0
  9
$LIMMAX
 10
12.0
 20
9.0
  9
$ORTHOMODE
 70
     0
  9
$REGENMODE
 70
     1
  9
$FILLMODE
 70
     1
  9
$QTEXTMODE
 70
     0
  9
$MIRRTEXT
 70
     1
  9
$DRAGMODE
 70
     2
  9
$LTSCALE
 40
1.0
  9
$OSMODE
 70
    37
  9
$ATTMODE
 70
     1
  9
$TEXTSIZE
 40
0.2
  9
$TRACEWID
 40
0.05
  9
$TEXTSTYLE
  7
STANDARD
  9
$CLAYER
  8
0
  9
$CELTYPE
  6
BYLAYER
  9
$CECOLOR
 62
   256
  9
$DIMSCALE
 40
1.0
  9
$DIMASZ
 40
0.18
  9
$DIMEXO
 40
0.0625
  9
$DIMDLI
 40
0.38
  9
$DIMRND
 40
0.0
  9
$DIMDLE
 40
0.0
  9
$DIMEXE
 40
0.18
  9
$DIMTP
 40
0.0
  9
$DIMTM
 40
0.0
  9
$DIMTXT
 40
0.18
  9
$DIMCEN
 40
0.09
  9
$DIMTSZ
 40
0.0
  9
$DIMTOL
 70
     0
  9
$DIMLIM
 70
     0
  9
$DIMTIH
 70
     1
  9
$DIMTOH
 70
     1
  9
$DIMSE1
 70
     0
  9
$DIMSE2
 70
     0
  9
$DIMTAD
 70
     0
  9
$DIMZIN
 70
     0
  9
$DIMBLK
  1

  9
$DIMASO
 70
     1
  9
$DIMSHO
 70
     1
  9
$DIMPOST
  1

  9
$DIMAPOST
  1

  9
$DIMALT
 70
     0
  9
$DIMALTD
 70
     2
  9
$DIMALTF
 40
25.4
  9
$DIMLFAC
 40
1.0
  9
$DIMTOFL
 70
     0
  9
$DIMTVP
 40
0.0
  9
$DIMTIX
 70
     0
  9
$DIMSOXD
 70
     0
  9
$DIMSAH
 70
     0
  9
$DIMBLK1
  1

  9
$DIMBLK2
  1

  9
$DIMSTYLE
  2
STANDARD
  9
$DIMCLRD
 70
     0
  9
$DIMCLRE
 70
     0
  9
$DIMCLRT
 70
     0
  9
$DIMTFAC
 40
1.0
  9
$DIMGAP
 40
0.09
  9
$LUNITS
 70
     2
  9
$LUPREC
 70
     4
  9
$SKETCHINC
 40
0.1
  9
$FILLETRAD
 40
0.5
  9
$AUNITS
 70
     0
  9
$AUPREC
 70
     0
  9
$MENU
  1
.
  9
$ELEVATION
 40
0.0
  9
$PELEVATION
 40
0.0
  9
$THICKNESS
 40
0.0
  9
$LIMCHECK
 70
     0
  9
$CHAMFERA
 40
0.5
  9
$CHAMFERB
 40
0.5
  9
$SKPOLY
 70
     0
  9
$TDCREATE
 40
2454907.937164352
  9
$TDUPDATE
 40
2454907.937164352
  9
$TDINDWG
 40
0.0000000116
  9
$TDUSRTIMER
 40
0.0000000116
  9
$USRTIMER
 70
     1
  9
$ANGBASE
 50
0.0
  9
$ANGDIR
 70
     0
  9
$PDMODE
 70
     0
  9
$PDSIZE
 40
0.0
  9
$PLINEWID
 40
0.0
  9
$COORDS
 70
     1
  9
$SPLFRAME
 70
     0
  9
$SPLINETYPE
 70
     6
  9
$SPLINESEGS
 70
     8
  9
$ATTDIA
 70
     0
  9
$ATTREQ
 70
     1
  9
$HANDLING
 70
     1
  9
$HANDSEED
  5
D9
  9
$SURFTAB1
 70
     6
  9
$SURFTAB2
 70
     6
  9
$SURFTYPE
 70
     6
  9
$SURFU
 70
     6
  9
$SURFV
 70
     6
  9
$UCSNAME
  2

  9
$UCSORG
 10
0.0
 20
0.0
 30
0.0
  9
$UCSXDIR
 10
1.0
 20
0.0
 30
0.0
  9
$UCSYDIR
 10
0.0
 20
1.0
 30
0.0
  9
$PUCSNAME
  2

  9
$PUCSORG
 10
0.0
 20
0.0
 30
0.0
  9
$PUCSXDIR
 10
1.0
 20
0.0
 30
0.0
  9
$PUCSYDIR
 10
0.0
 20
1.0
 30
0.0
  9
$USERI1
 70
     0
  9
$USERI2
 70
     0
  9
$USERI3
 70
     0
  9
$USERI4
 70
     0
  9
$USERI5
 70
     0
  9
$USERR1
 40
0.0
  9
$USERR2
 40
0.0
  9
$USERR3
 40
0.0
  9
$USERR4
 40
0.0
  9
$USERR5
 40
0.0
  9
$WORLDVIEW
 70
     1
  9
$SHADEDGE
 70
     3
  9
$SHADEDIF
 70
    70
  9
$TILEMODE
 70
     1
  9
$MAXACTVP
 70
    64
  9
$PLIMCHECK
 70
     0
  9
$PEXTMIN
 10
0.0
 20
0.0
 30
0.0
  9
$PEXTMAX
 10
1000.0
 20
1000.0
 30
0.0
  9
$PLIMMIN
 10
0.0
 20
0.0
  9
$PLIMMAX
 10
100.0
 20
100.0
  9
$UNITMODE
 70
     0
  9
$VISRETAIN
 70
     1
  9
$PLINEGEN
 70
     0
  9
$PSLTSCALE
 70
     1
  0
ENDSEC
  0
SECTION
  2
TABLES
  0
TABLE
  2
VPORT
 70
     1
  0
VPORT
  2
*ACTIVE
 70
     0
 10
0.0
 20
0.0
 11
1.0
 21
1.0
 12
3.086392857142856
 22
0.2292500000000004
 13
0.0
 23
0.0
 14
0.5
 24
0.5
 15
0.5
 25
0.5
 16
0.0
 26
0.0
 36
1.0
 17
0.0
 27
0.0
 37
0.0
 40
3.75114182019404
 41
1.972972972850329
 42
50.0
 43
0.0
 44
0.0
 50
0.0
 51
0.0
 71
     0
 72
   100
 73
     1
 74
     3
 75
     0
 76
     0
 77
     0
 78
     0
  0
ENDTAB
  0
TABLE
  2
LTYPE
 70
     3
  0
LTYPE
  2
CONTINUOUS
 70
     0
  3
Solid line
 72
    65
 73
     0
 40
0.0
  0
LTYPE
  2
GESTRICHELT
 70
     0
  3

 72
    65
 73
     2
 40
2.0
 49
1.0
 49
-1.0
  0
LTYPE
  2
MITTE
 70
     0
  3

 72
    65
 73
     4
 40
2.0
 49
0.45
 49
-0.5
 49
0.05
 49
-0.5
  0
ENDTAB
  0
TABLE
  2
LAYER
 70
     2
  0
LAYER
  2
0
 70
     0
 62
     7
  6
CONTINUOUS
  0
LAYER
  2
ATTRIB
 70
     0
 62
    -7
  6
CONTINUOUS
  0
ENDTAB
  0
TABLE
  2
STYLE
 70
     1
  0
STYLE
  2
STANDARD
 70
     0
 40
0.0
 41
1.0
 50
0.0
 71
     0
 42
0.2
  3
txt
  4

  0
ENDTAB
  0
TABLE
  2
VIEW
 70
     0
  0
ENDTAB
  0
TABLE
  2
UCS
 70
     0
  0
ENDTAB
  0
TABLE
  2
APPID
 70
     1
  0
APPID
  2
ACAD
 70
     0
  0
ENDTAB
  0
TABLE
  2
DIMSTYLE
 70
     1
  0
DIMSTYLE
  2
STANDARD
 70
     0
  3

  4

  5

  6

  7

 40
1.0
 41
0.18
 42
0.0625
 43
0.38
 44
0.18
 45
0.0
 46
0.0
 47
0.0
 48
0.0
140
0.18
141
0.09
142
0.0
143
25.4
144
1.0
145
0.0
146
1.0
147
0.09
 71
     0
 72
     0
 73
     1
 74
     1
 75
     0
 76
     0
 77
     0
 78
     0
170
     0
171
     2
172
     0
173
     0
174
     0
175
     0
176
     0
177
     0
178
     0
  0
ENDTAB
  0
ENDSEC
  0
SECTION
  2
BLOCKS
  0
BLOCK
  8
0
  2
$MODEL_SPACE
 70
     0
 10
0.0
 20
0.0
 30
0.0
  3
$MODEL_SPACE
  1

  0
ENDBLK
  5
21
  8
0
  0
BLOCK
 67
     1
  8
0
  2
$PAPER_SPACE
 70
     0
 10
0.0
 20
0.0
 30
0.0
  3
$PAPER_SPACE
  1

  0
ENDBLK
  5
1D
 67
     1
  8
0
  0
ENDSEC
  0
SECTION
  2
ENTITIES
  0
ARC
  5
2D
  8
0
  6
CONTINUOUS
 62
     7
 10
-0.0000000000000867
 20
-0.0000000000000027
 30
0.0
 40
0.5414999999999134
 50
177.7950937283806
 51
182.2049062716188
  0
ARC
  5
2E
  8
0
  6
CONTINUOUS
 62
     7
 10
-0.4299043525245341
 20
-0.2934067692642334
 30
0.0
 40
0.3333333333332877
 50
101.9510137809983
 51
109.4864671119258
  0
LINE
  5
2F
  8
0
  6
CONTINUOUS
 62
     7
 10
-0.4464060717993326
 20
0.0377573709451408
 30
0.0
 11
-0.4989294616193002
 21
0.0327015646150717
 31
0.0
  0
ARC
  5
30
  8
0
  6
CONTINUOUS
 62
     7
 10
0.0000000000002605
 20
-0.0000000000000528
 30
0.0
 40
0.4480000000002658
 50
169.8346144789521
 51
175.1653855210432
  0
LINE
  5
31
  8
0
  6
CONTINUOUS
 62
     7
 10
-0.490392640201614
 20
0.0975451610080638
 30
0.0
 11
-0.4409674804568307
 21
0.0790675735023829
 31
0.0
  0
ARC
  5
32
  8
0
  6
CONTINUOUS
 62
     7
 10
-0.3393164570899141
 20
0.3946766100462263
 30
0.0
 40
0.3333333333333436
 50
235.5135328880749
 51
243.048986219001
  0
ARC
  5
33
  8
0
  6
CONTINUOUS
 62
     7
 10
0.0000000000000564
 20
-0.0000000000000092
 30
0.0
 40
0.5415000000000566
 50
162.795093728382
 51
167.2049062716192
  0
ARC
  5
34
  8
0
  6
CONTINUOUS
 62
     7
 10
-0.4911949767851115
 20
-0.1721417420346297
 30
0.0
 40
0.3333333333333741
 50
86.95101378099916
 51
94.48646711192465
  0
LINE
  5
35
  8
0
  6
CONTINUOUS
 62
     7
 10
-0.421422827069625
 20
0.1520092129597586
 30
0.0
 11
-0.4734650647475512
 21
0.1607197326515806
 31
0.0
  0
ARC
  5
36
  8
0
  6
CONTINUOUS
 62
     7
 10
0.0000000000000114
 20
-0.0000000000000156
 30
0.0
 40
0.4480000000000169
 50
154.8346144789517
 51
160.1653855210457
  0
LINE
  5
37
  8
0
  6
CONTINUOUS
 62
     7
 10
-0.4484363707663429
 20
0.2211443451094999
 30
0.0
 11
-0.4054776840544126
 21
0.1905041934810622
 31
0.0
  0
ARC
  5
38
  8
0
  6
CONTINUOUS
 62
     7
 10
-0.2256047058515981
 20
0.4690498920874397
 30
0.0
 40
0.3333333333333299
 50
220.513532888074
 51
228.0489862190007
  0
ARC
  5
39
  8
0
  6
CONTINUOUS
 62
     7
 10
0.0000000000000582
 20
-0.00000000000005
 30
0.0
 40
0.5415000000000758
 50
147.79509372838
 51
152.204906271617
  0
ARC
  5
3A
  8
0
  6
CONTINUOUS
 62
     7
 10
-0.5190114751158682
 20
-0.0391455395629098
 30
0.0
 40
0.3333333333333191
 50
71.9510137809993
 51
79.486467111926
  0
LINE
  5
3B
  8
0
  6
CONTINUOUS
 62
     7
 10
-0.3677203131092717
 20
0.2559018783182707
 30
0.0
 11
-0.4157348061512712
 21
0.2777851165098005
 31
0.0
  0
ARC
  5
3C
  8
0
  6
CONTINUOUS
 62
     7
 10
0.0000000000001414
 20
-0.0000000000001165
 30
0.0
 40
0.4480000000001833
 50
139.8346144789532
 51
145.1653855210452
  0
LINE
  5
3D
  8
0
  6
CONTINUOUS
 62
     7
 10
-0.3759199037394877
 20
0.3296729075500333
 30
0.0
 11
-0.342355253567242
 21
0.2889582674970722
 31
0.0
  0
ARC
  5
3E
  8
0
  6
CONTINUOUS
 62
     7
 10
-0.0965183667389176
 20
0.5114581991244889
 30
0.0
 40
0.3333333333333034
 50
205.5135328880735
 51
213.0489862190005
  0
ARC
  5
3F
  8
0
  6
CONTINUOUS
 62
     7
 10
-0.000000000000171
 20
0.0000000000001783
 30
0.0
 40
0.5414999999997529
 50
132.7950937283807
 51
137.2049062716204
  0
ARC
  5
40
  8
0
  6
CONTINUOUS
 62
     7
 10
-0.5114581991245064
 20
0.0965183667388954
 30
0.0
 40
0.3333333333333311
 50
56.95101378099903
 51
64.48646711192548
  0
LINE
  5
41
  8
0
  6
CONTINUOUS
 62
     7
 10
-0.2889582674970722
 20
0.342355253567242
 30
0.0
 11
-0.3296729075500333
 21
0.3759199037394878
 31
0.0
  0
ARC
  5
42
  8
0
  6
CONTINUOUS
 62
     7
 10
0.0000000000000698
 20
-0.0000000000000951
 30
0.0
 40
0.448000000000118
 50
124.8346144789533
 51
130.1653855210461
  0
LINE
  5
43
  8
0
  6
CONTINUOUS
 62
     7
 10
-0.2777851165098005
 20
0.4157348061512716
 30
0.0
 11
-0.2559018783182707
 21
0.367720313109272
 31
0.0
  0
ARC
  5
44
  8
0
  6
CONTINUOUS
 62
     7
 10
0.0391455395628894
 20
0.5190114751158644
 30
0.0
 40
0.3333333333332986
 50
190.513532888074
 51
198.0489862190011
  0
ARC
  5
45
  8
0
  6
CONTINUOUS
 62
     7
 10
-0.0000000000000587
 20
0.000000000000104
 30
0.0
 40
0.5414999999998807
 50
117.7950937283808
 51
122.2049062716195
  0
ARC
  5
46
  8
0
  6
CONTINUOUS
 62
     7
 10
-0.4690498920874547
 20
0.2256047058515847
 30
0.0
 40
0.3333333333333499
 50
41.95101378099948
 51
49.48646711192534
  0
LINE
  5
47
  8
0
  6
CONTINUOUS
 62
     7
 10
-0.1905041934810619
 20
0.4054776840544123
 30
0.0
 11
-0.2211443451095004
 21
0.4484363707663436
 31
0.0
  0
ARC
  5
48
  8
0
  6
CONTINUOUS
 62
     7
 10
0.0000000000000188
 20
-0.0000000000000467
 30
0.0
 40
0.4480000000000504
 50
109.8346144789531
 51
115.1653855210467
  0
LINE
  5
49
  8
0
  6
CONTINUOUS
 62
     7
 10
-0.1607197326515806
 20
0.473465064747552
 30
0.0
 11
-0.1520092129597585
 21
0.4214228270696248
 31
0.0
  0
ARC
  5
4A
  8
0
  6
CONTINUOUS
 62
     7
 10
0.1721417420346508
 20
0.4911949767851101
 30
0.0
 40
0.333333333333395
 50
175.5135328880754
 51
183.0489862190003
  0
ARC
  5
4B
  8
0
  6
CONTINUOUS
 62
     7
 10
-0.0000000000000522
 20
0.0000000000002097
 30
0.0
 40
0.5414999999997837
 50
102.7950937283807
 51
107.2049062716201
  0
ARC
  5
4C
  8
0
  6
CONTINUOUS
 62
     7
 10
-0.3946766100462287
 20
0.3393164570899094
 30
0.0
 40
0.3333333333333481
 50
26.95101378099962
 51
34.48646711192554
  0
LINE
  5
4D
  8
0
  6
CONTINUOUS
 62
     7
 10
-0.0790675735023827
 20
0.4409674804568304
 30
0.0
 11
-0.0975451610080639
 21
0.4903926402016144
 31
0.0
  0
ARC
  5
4E
  8
0
  6
CONTINUOUS
 62
     7
 10
0.00000000000001
 20
-0.0000000000000641
 30
0.0
 40
0.4480000000000648
 50
94.83461447895347
 51
100.1653855210469
  0
LINE
  5
4F
  8
0
  6
CONTINUOUS
 62
     7
 10
-0.0327015646150716
 20
0.498929461619301
 30
0.0
 11
-0.0377573709451407
 21
0.4464060717993328
 31
0.0
  0
ARC
  5
50
  8
0
  6
CONTINUOUS
 62
     7
 10
0.293406769264266
 20
0.4299043525245245
 30
0.0
 40
0.3333333333333217
 50
160.5135328880747
 51
168.0489862190011
  0
ARC
  5
51
  8
0
  6
CONTINUOUS
 62
     7
 10
0.0000000000000042
 20
0.0000000000001583
 30
0.0
 40
0.5414999999998416
 50
87.79509372838098
 51
92.20490627161996
  0
ARC
  5
52
  8
0
  6
CONTINUOUS
 62
     7
 10
-0.2934067692642731
 20
0.4299043525245219
 30
0.0
 40
0.333333333333329
 50
11.95101378099906
 51
19.48646711192545
  0
LINE
  5
53
  8
0
  6
CONTINUOUS
 62
     7
 10
0.0377573709451406
 20
0.4464060717993332
 30
0.0
 11
0.0327015646150716
 21
0.4989294616193009
 31
0.0
  0
ARC
  5
54
  8
0
  6
CONTINUOUS
 62
     7
 10
-0.00000000000011
 20
-0.0000000000006821
 30
0.0
 40
0.4480000000006909
 50
79.83461447895439
 51
85.16538552104046
  0
LINE
  5
55
  8
0
  6
CONTINUOUS
 62
     7
 10
0.0975451610080638
 20
0.4903926402016134
 30
0.0
 11
0.0790675735023831
 21
0.4409674804568307
 31
0.0
  0
ARC
  5
56
  8
0
  6
CONTINUOUS
 62
     7
 10
0.3946766100462585
 20
0.3393164570898999
 30
0.0
 40
0.3333333333333781
 50
145.5135328880759
 51
153.0489862190014
  0
ARC
  5
57
  8
0
  6
CONTINUOUS
 62
     7
 10
0.0000000000000083
 20
0.0000000000000427
 30
0.0
 40
0.5414999999999567
 50
72.79509372838058
 51
77.20490627161867
  0
ARC
  5
58
  8
0
  6
CONTINUOUS
 62
     7
 10
-0.1721417420345581
 20
0.4911949767851149
 30
0.0
 40
0.3333333333333028
 50
356.9510137809977
 51
4.486467111925094
  0
LINE
  5
59
  8
0
  6
CONTINUOUS
 62
     7
 10
0.1520092129597588
 20
0.4214228270696243
 30
0.0
 11
0.1607197326515807
 21
0.47346506474755
 31
0.0
  0
ARC
  5
5A
  8
0
  6
CONTINUOUS
 62
     7
 10
-0.000000000000363
 20
-0.0000000000007635
 30
0.0
 40
0.4480000000008454
 50
64.83461447895233
 51
70.16538552103654
  0
LINE
  5
5B
  8
0
  6
CONTINUOUS
 62
     7
 10
0.2211443451094996
 20
0.4484363707663421
 30
0.0
 11
0.1905041934810624
 21
0.4054776840544125
 31
0.0
  0
ARC
  5
5C
  8
0
  6
CONTINUOUS
 62
     7
 10
0.4690498920874668
 20
0.2256047058515727
 30
0.0
 40
0.3333333333333667
 50
130.5135328880748
 51
138.0489862190007
  0
ARC
  5
5D
  8
0
  6
CONTINUOUS
 62
     7
 10
-0.0000000000001061
 20
-0.0000000000001695
 30
0.0
 40
0.5415000000001999
 50
57.7950937283812
 51
62.20490627161723
  0
ARC
  5
5E
  8
0
  6
CONTINUOUS
 62
     7
 10
-0.0391455395629567
 20
0.5190114751158828
 30
0.0
 40
0.3333333333333683
 50
341.9510137809993
 51
349.4864671119251
  0
LINE
  5
5F
  8
0
  6
CONTINUOUS
 62
     7
 10
0.2559018783182708
 20
0.3677203131092713
 30
0.0
 11
0.2777851165098005
 21
0.4157348061512705
 31
0.0
  0
ARC
  5
60
  8
0
  6
CONTINUOUS
 62
     7
 10
-0.0000000000003331
 20
-0.0000000000004245
 30
0.0
 40
0.4480000000005393
 50
49.83461447895532
 51
55.16538552104312
  0
LINE
  5
61
  8
0
  6
CONTINUOUS
 62
     7
 10
0.3296729075500333
 20
0.3759199037394873
 30
0.0
 11
0.2889582674970723
 21
0.3423552535672417
 31
0.0
  0
ARC
  5
62
  8
0
  6
CONTINUOUS
 62
     7
 10
0.5114581991245291
 20
0.0965183667388617
 30
0.0
 40
0.333333333333371
 50
115.5135328880755
 51
123.0489862190011
  0
ARC
  5
63
  8
0
  6
CONTINUOUS
 62
     7
 10
-0.0000000000000763
 20
-0.0000000000000762
 30
0.0
 40
0.5415000000001078
 50
42.79509372838155
 51
47.20490627161835
  0
ARC
  5
64
  8
0
  6
CONTINUOUS
 62
     7
 10
0.0965183667389022
 20
0.5114581991245046
 30
0.0
 40
0.3333333333333246
 50
326.9510137809986
 51
334.4864671119252
  0
LINE
  5
65
  8
0
  6
CONTINUOUS
 62
     7
 10
0.3423552535672421
 20
0.2889582674970718
 30
0.0
 11
0.3759199037394878
 21
0.3296729075500329
 31
0.0
  0
ARC
  5
66
  8
0
  6
CONTINUOUS
 62
     7
 10
-0.0000000000005587
 20
-0.0000000000003909
 30
0.0
 40
0.4480000000006819
 50
34.83461447895306
 51
40.16538552103919
  0
LINE
  5
67
  8
0
  6
CONTINUOUS
 62
     7
 10
0.4157348061512714
 20
0.2777851165098002
 30
0.0
 11
0.3677203131092721
 21
0.2559018783182705
 31
0.0
  0
ARC
  5
68
  8
0
  6
CONTINUOUS
 62
     7
 10
0.5190114751158637
 20
-0.0391455395628823
 30
0.0
 40
0.3333333333332912
 50
100.5135328880742
 51
108.0489862190014
  0
ARC
  5
69
  8
0
  6
CONTINUOUS
 62
     7
 10
0.0000000000000221
 20
0.000000000000002
 30
0.0
 40
0.5414999999999796
 50
27.79509372838207
 51
32.20490627161988
  0
ARC
  5
6A
  8
0
  6
CONTINUOUS
 62
     7
 10
0.2256047058515922
 20
0.4690498920874481
 30
0.0
 40
0.33333333333334
 50
311.951013780999
 51
319.4864671119254
  0
LINE
  5
6B
  8
0
  6
CONTINUOUS
 62
     7
 10
0.4054776840544124
 20
0.1905041934810615
 30
0.0
 11
0.4484363707663425
 21
0.2211443451094992
 31
0.0
  0
ARC
  5
6C
  8
0
  6
CONTINUOUS
 62
     7
 10
-0.0000000000006379
 20
-0.0000000000002462
 30
0.0
 40
0.4480000000006837
 50
19.8346144789548
 51
25.1653855210409
  0
LINE
  5
6D
  8
0
  6
CONTINUOUS
 62
     7
 10
0.4734650647475505
 20
0.1607197326515801
 30
0.0
 11
0.4214228270696248
 21
0.1520092129597583
 31
0.0
  0
ARC
  5
6E
  8
0
  6
CONTINUOUS
 62
     7
 10
0.4911949767851121
 20
-0.1721417420346083
 30
0.0
 40
0.3333333333333522
 50
85.51353288807522
 51
93.04898621900126
  0
ARC
  5
6F
  8
0
  6
CONTINUOUS
 62
     7
 10
0.0000000000001571
 20
0.0000000000000337
 30
0.0
 40
0.5414999999998393
 50
12.79509372838136
 51
17.20490627162034
  0
ARC
  5
70
  8
0
  6
CONTINUOUS
 62
     7
 10
0.3393164570899027
 20
0.3946766100462461
 30
0.0
 40
0.3333333333333668
 50
296.9510137809991
 51
304.4864671119248
  0
LINE
  5
71
  8
0
  6
CONTINUOUS
 62
     7
 10
0.4409674804568304
 20
0.0790675735023823
 30
0.0
 11
0.4903926402016132
 21
0.0975451610080631
 31
0.0
  0
ARC
  5
72
  8
0
  6
CONTINUOUS
 62
     7
 10
-0.0000000000007288
 20
-0.000000000000071
 30
0.0
 40
0.4480000000007322
 50
4.83461447895397
 51
10.16538552103956
  0
LINE
  5
73
  8
0
  6
CONTINUOUS
 62
     7
 10
0.4989294616193
 20
0.0327015646150714
 30
0.0
 11
0.4464060717993328
 21
0.0377573709451404
 31
0.0
  0
ARC
  5
74
  8
0
  6
CONTINUOUS
 62
     7
 10
0.4299043525245148
 20
-0.2934067692642951
 30
0.0
 40
0.333333333333352
 50
70.51353288807458
 51
78.04898621900068
  0
ARC
  5
75
  8
0
  6
CONTINUOUS
 62
     7
 10
-0.0000000000000012
 20
0.0000000000000068
 30
0.0
 40
0.5415000000000014
 50
357.7950937283804
 51
2.204906271617972
  0
ARC
  5
76
  8
0
  6
CONTINUOUS
 62
     7
 10
0.4299043525245309
 20
0.293406769264256
 30
0.0
 40
0.3333333333333106
 50
281.9510137809979
 51
289.486467111925
  0
LINE
  5
77
  8
0
  6
CONTINUOUS
 62
     7
 10
0.4464060717993328
 20
-0.037757370945141
 30
0.0
 11
0.4989294616192994
 21
-0.032701564615072
 31
0.0
  0
ARC
  5
78
  8
0
  6
CONTINUOUS
 62
     7
 10
-0.0000000000004824
 20
0.0000000000000789
 30
0.0
 40
0.4480000000004888
 50
349.8346144789538
 51
355.1653855210421
  0
LINE
  5
79
  8
0
  6
CONTINUOUS
 62
     7
 10
0.4903926402016133
 20
-0.0975451610080637
 30
0.0
 11
0.4409674804568306
 21
-0.079067573502383
 31
0.0
  0
ARC
  5
7A
  8
0
  6
CONTINUOUS
 62
     7
 10
0.3393164570898964
 20
-0.3946766100462567
 30
0.0
 40
0.3333333333333786
 50
55.51353288807535
 51
63.04898621900075
  0
ARC
  5
7B
  8
0
  6
CONTINUOUS
 62
     7
 10
0.0000000000000646
 20
-0.000000000000021
 30
0.0
 40
0.541499999999932
 50
342.7950937283812
 51
347.2049062716194
  0
ARC
  5
7C
  8
0
  6
CONTINUOUS
 62
     7
 10
0.4911949767851114
 20
0.1721417420345936
 30
0.0
 40
0.3333333333333381
 50
266.9510137809988
 51
274.4864671119252
  0
LINE
  5
7D
  8
0
  6
CONTINUOUS
 62
     7
 10
0.421422827069625
 20
-0.1520092129597588
 30
0.0
 11
0.473465064747551
 21
-0.1607197326515807
 31
0.0
  0
ARC
  5
7E
  8
0
  6
CONTINUOUS
 62
     7
 10
-0.0000000000007308
 20
0.0000000000003216
 30
0.0
 40
0.4480000000007983
 50
334.8346144789554
 51
340.1653855210401
  0
LINE
  5
7F
  8
0
  6
CONTINUOUS
 62
     7
 10
0.4484363707663421
 20
-0.2211443451094995
 30
0.0
 11
0.4054776840544127
 21
-0.1905041934810624
 31
0.0
  0
ARC
  5
80
  8
0
  6
CONTINUOUS
 62
     7
 10
0.2256047058516141
 20
-0.4690498920874288
 30
0.0
 40
0.3333333333333105
 50
40.51353288807467
 51
48.04898621900158
  0
ARC
  5
81
  8
0
  6
CONTINUOUS
 62
     7
 10
-0.0000000000000342
 20
0.0000000000000068
 30
0.0
 40
0.5415000000000325
 50
327.7950937283825
 51
332.2049062716199
  0
ARC
  5
82
  8
0
  6
CONTINUOUS
 62
     7
 10
0.519011475115879
 20
0.0391455395629404
 30
0.0
 40
0.3333333333333516
 50
251.9510137809992
 51
259.4864671119252
  0
LINE
  5
83
  8
0
  6
CONTINUOUS
 62
     7
 10
0.3677203131092712
 20
-0.2559018783182706
 30
0.0
 11
0.4157348061512713
 21
-0.2777851165098007
 31
0.0
  0
ARC
  5
84
  8
0
  6
CONTINUOUS
 62
     7
 10
-0.0000000000003259
 20
0.0000000000002577
 30
0.0
 40
0.4480000000004153
 50
319.8346144789546
 51
325.1653855210439
  0
LINE
  5
85
  8
0
  6
CONTINUOUS
 62
     7
 10
0.375919903739487
 20
-0.3296729075500328
 30
0.0
 11
0.3423552535672418
 21
-0.2889582674970723
 31
0.0
  0
ARC
  5
86
  8
0
  6
CONTINUOUS
 62
     7
 10
0.0965183667388598
 20
-0.5114581991245262
 30
0.0
 40
0.3333333333333716
 50
25.51353288807498
 51
33.04898621900063
  0
ARC
  5
87
  8
0
  6
CONTINUOUS
 62
     7
 10
0.0000000000000117
 20
-0.0000000000000149
 30
0.0
 40
0.541499999999981
 50
312.7950937283813
 51
317.2049062716192
  0
ARC
  5
88
  8
0
  6
CONTINUOUS
 62
     7
 10
0.5114581991245142
 20
-0.0965183667388877
 30
0.0
 40
0.3333333333333419
 50
236.9510137809986
 51
244.4864671119248
  0
LINE
  5
89
  8
0
  6
CONTINUOUS
 62
     7
 10
0.2889582674970718
 20
-0.3423552535672419
 30
0.0
 11
0.329672907550033
 21
-0.3759199037394878
 31
0.0
  0
ARC
  5
8A
  8
0
  6
CONTINUOUS
 62
     7
 10
-0.0000000000003155
 20
0.0000000000004276
 30
0.0
 40
0.4480000000005313
 50
304.8346144789547
 51
310.1653855210427
  0
LINE
  5
8B
  8
0
  6
CONTINUOUS
 62
     7
 10
0.2777851165097999
 20
-0.4157348061512705
 30
0.0
 11
0.2559018783182706
 21
-0.3677203131092721
 31
0.0
  0
ARC
  5
8C
  8
0
  6
CONTINUOUS
 62
     7
 10
-0.0391455395629065
 20
-0.5190114751158692
 30
0.0
 40
0.3333333333333161
 50
10.51353288807431
 51
18.04898621900123
  0
ARC
  5
8D
  8
0
  6
CONTINUOUS
 62
     7
 10
-0.0000000000000172
 20
0.0000000000000198
 30
0.0
 40
0.5415000000000255
 50
297.7950937283817
 51
302.2049062716192
  0
ARC
  5
8E
  8
0
  6
CONTINUOUS
 62
     7
 10
0.4690498920874674
 20
-0.2256047058515787
 30
0.0
 40
0.3333333333333635
 50
221.9510137809987
 51
229.4864671119244
  0
LINE
  5
8F
  8
0
  6
CONTINUOUS
 62
     7
 10
0.1905041934810619
 20
-0.4054776840544127
 30
0.0
 11
0.2211443451095
 21
-0.4484363707663436
 31
0.0
  0
ARC
  5
90
  8
0
  6
CONTINUOUS
 62
     7
 10
-0.0000000000002655
 20
0.0000000000006886
 30
0.0
 40
0.448000000000738
 50
289.8346144789549
 51
295.1653855210403
  0
LINE
  5
91
  8
0
  6
CONTINUOUS
 62
     7
 10
0.1607197326515802
 20
-0.4734650647475505
 30
0.0
 11
0.1520092129597584
 21
-0.4214228270696249
 31
0.0
  0
ARC
  5
92
  8
0
  6
CONTINUOUS
 62
     7
 10
-0.172141742034621
 20
-0.4911949767851142
 30
0.0
 40
0.3333333333333647
 50
355.5135328880757
 51
3.048986219001392
  0
ARC
  5
93
  8
0
  6
CONTINUOUS
 62
     7
 10
-0.000000000000011
 20
0.0000000000000464
 30
0.0
 40
0.5415000000000477
 50
282.7950937283811
 51
287.2049062716185
  0
ARC
  5
94
  8
0
  6
CONTINUOUS
 62
     7
 10
0.394676610046247
 20
-0.3393164570899029
 30
0.0
 40
0.3333333333333675
 50
206.9510137809991
 51
214.4864671119247
  0
LINE
  5
95
  8
0
  6
CONTINUOUS
 62
     7
 10
0.0790675735023823
 20
-0.44096748045683
 30
0.0
 11
0.0975451610080636
 21
-0.490392640201614
 31
0.0
  0
ARC
  5
96
  8
0
  6
CONTINUOUS
 62
     7
 10
-0.0000000000000362
 20
0.000000000000326
 30
0.0
 40
0.4480000000003279
 50
274.8346144789539
 51
280.1653855210443
  0
LINE
  5
97
  8
0
  6
CONTINUOUS
 62
     7
 10
0.0327015646150716
 20
-0.4989294616192993
 30
0.0
 11
0.0377573709451405
 21
-0.4464060717993327
 31
0.0
  0
ARC
  5
98
  8
0
  6
CONTINUOUS
 62
     7
 10
-0.2934067692642929
 20
-0.42990435252452
 30
0.0
 40
0.3333333333333484
 50
340.5135328880754
 51
348.0489862190016
  0
ARC
  5
99
  8
0
  6
CONTINUOUS
 62
     7
 10
-0.0000000000000002
 20
-0.0000000000000813
 30
0.0
 40
0.5414999999999187
 50
267.7950937283808
 51
272.2049062716191
  0
ARC
  5
9A
  8
0
  6
CONTINUOUS
 62
     7
 10
0.2934067692643037
 20
-0.4299043525245142
 30
0.0
 40
0.3333333333333607
 50
191.9510137809992
 51
199.4864671119249
  0
LINE
  5
9B
  8
0
  6
CONTINUOUS
 62
     7
 10
-0.0377573709451408
 20
-0.4464060717993325
 30
0.0
 11
-0.0327015646150718
 21
-0.4989294616193007
 31
0.0
  0
ARC
  5
9C
  8
0
  6
CONTINUOUS
 62
     7
 10
0.000000000000082
 20
0.0000000000005156
 30
0.0
 40
0.448000000000522
 50
259.8346144789542
 51
265.1653855210422
  0
LINE
  5
9D
  8
0
  6
CONTINUOUS
 62
     7
 10
-0.0975451610080635
 20
-0.4903926402016131
 30
0.0
 11
-0.0790675735023829
 21
-0.4409674804568307
 31
0.0
  0
ARC
  5
9E
  8
0
  6
CONTINUOUS
 62
     7
 10
-0.3946766100462086
 20
-0.3393164570899231
 30
0.0
 40
0.3333333333333239
 50
325.5135328880745
 51
333.0489862190011
  0
ARC
  5
9F
  8
0
  6
CONTINUOUS
 62
     7
 10
-0.0000000000000408
 20
-0.0000000000001195
 30
0.0
 40
0.5414999999998738
 50
252.7950937283815
 51
257.2049062716203
  0
ARC
  5
A0
  8
0
  6
CONTINUOUS
 62
     7
 10
0.1721417420346099
 20
-0.4911949767851107
 30
0.0
 40
0.3333333333333544
 50
176.9510137809992
 51
184.4864671119251
  0
LINE
  5
A1
  8
0
  6
CONTINUOUS
 62
     7
 10
-0.1520092129597587
 20
-0.4214228270696251
 30
0.0
 11
-0.1607197326515807
 21
-0.4734650647475516
 31
0.0
  0
ARC
  5
A2
  8
0
  6
CONTINUOUS
 62
     7
 10
0.0000000000001722
 20
0.0000000000003605
 30
0.0
 40
0.4480000000003995
 50
244.8346144789525
 51
250.165385521042
  0
LINE
  5
A3
  8
0
  6
CONTINUOUS
 62
     7
 10
-0.2211443451094996
 20
-0.4484363707663424
 30
0.0
 11
-0.1905041934810622
 21
-0.4054776840544126
 31
0.0
  0
ARC
  5
A4
  8
0
  6
CONTINUOUS
 62
     7
 10
-0.4690498920874444
 20
-0.2256047058515959
 30
0.0
 40
0.3333333333333347
 50
310.5135328880746
 51
318.0489862190011
  0
ARC
  5
A5
  8
0
  6
CONTINUOUS
 62
     7
 10
0.0000000000000355
 20
0.0000000000000743
 30
0.0
 40
0.5415000000000817
 50
237.7950937283822
 51
242.2049062716192
  0
ARC
  5
A6
  8
0
  6
CONTINUOUS
 62
     7
 10
0.0391455395629409
 20
-0.5190114751158765
 30
0.0
 40
0.3333333333333512
 50
161.9510137809996
 51
169.4864671119256
  0
LINE
  5
A7
  8
0
  6
CONTINUOUS
 62
     7
 10
-0.2559018783182706
 20
-0.3677203131092713
 30
0.0
 11
-0.2777851165098006
 21
-0.4157348061512713
 31
0.0
  0
ARC
  5
A8
  8
0
  6
CONTINUOUS
 62
     7
 10
0.0000000000002053
 20
0.0000000000002719
 30
0.0
 40
0.4480000000003402
 50
229.8346144789552
 51
235.1653855210454
  0
LINE
  5
A9
  8
0
  6
CONTINUOUS
 62
     7
 10
-0.3296729075500328
 20
-0.3759199037394871
 30
0.0
 11
-0.2889582674970722
 21
-0.3423552535672418
 31
0.0
  0
ARC
  5
AA
  8
0
  6
CONTINUOUS
 62
     7
 10
-0.5114581991245187
 20
-0.0965183667388798
 30
0.0
 40
0.3333333333333504
 50
295.5135328880754
 51
303.0489862190015
  0
ARC
  5
AB
  8
0
  6
CONTINUOUS
 62
     7
 10
-0.0000000000000618
 20
-0.0000000000000516
 30
0.0
 40
0.5414999999999195
 50
222.7950937283816
 51
227.2049062716199
  0
ARC
  5
AC
  8
0
  6
CONTINUOUS
 62
     7
 10
-0.0965183667389274
 20
-0.5114581991244879
 30
0.0
 40
0.3333333333332942
 50
146.9510137809988
 51
154.486467111926
  0
LINE
  5
AD
  8
0
  6
CONTINUOUS
 62
     7
 10
-0.342355253567242
 20
-0.288958267497072
 30
0.0
 11
-0.375919903739488
 21
-0.3296729075500334
 31
0.0
  0
ARC
  5
AE
  8
0
  6
CONTINUOUS
 62
     7
 10
0.0000000000001611
 20
0.0000000000001232
 30
0.0
 40
0.4480000000002027
 50
214.834614478954
 51
220.1653855210459
  0
LINE
  5
AF
  8
0
  6
CONTINUOUS
 62
     7
 10
-0.4157348061512712
 20
-0.2777851165098002
 30
0.0
 11
-0.367720313109272
 21
-0.2559018783182706
 31
0.0
  0
ARC
  5
B0
  8
0
  6
CONTINUOUS
 62
     7
 10
-0.5190114751158774
 20
0.0391455395629257
 30
0.0
 40
0.3333333333333365
 50
280.5135328880753
 51
288.0489862190013
  0
ARC
  5
B1
  8
0
  6
CONTINUOUS
 62
     7
 10
0.0000000000000159
 20
0.0000000000000212
 30
0.0
 40
0.541500000000024
 50
207.7950937283824
 51
212.2049062716198
  0
ARC
  5
B2
  8
0
  6
CONTINUOUS
 62
     7
 10
-0.2256047058516063
 20
-0.469049892087435
 30
0.0
 40
0.3333333333333209
 50
131.9510137809989
 51
139.4864671119255
  0
LINE
  5
B3
  8
0
  6
CONTINUOUS
 62
     7
 10
-0.4054776840544128
 20
-0.1905041934810621
 30
0.0
 11
-0.4484363707663434
 21
-0.2211443451095
 31
0.0
  0
ARC
  5
B4
  8
0
  6
CONTINUOUS
 62
     7
 10
-0.0000000000000588
 20
-0.0000000000000333
 30
0.0
 40
0.4479999999999333
 50
199.8346144789514
 51
205.1653855210465
  0
LINE
  5
B5
  8
0
  6
CONTINUOUS
 62
     7
 10
-0.4734650647475511
 20
-0.1607197326515804
 30
0.0
 11
-0.4214228270696246
 21
-0.1520092129597584
 31
0.0
  0
ARC
  5
B6
  8
0
  6
CONTINUOUS
 62
     7
 10
-0.4911949767851144
 20
0.1721417420346432
 30
0.0
 40
0.3333333333333871
 50
265.513532888076
 51
273.0489862190012
  0
ARC
  5
B7
  8
0
  6
CONTINUOUS
 62
     7
 10
0.0000000000002397
 20
0.0000000000000631
 30
0.0
 40
0.5415000000002476
 50
192.795093728382
 51
197.2049062716177
  0
ARC
  5
B8
  8
0
  6
CONTINUOUS
 62
     7
 10
-0.33931645708991
 20
-0.3946766100462336
 30
0.0
 40
0.3333333333333522
 50
116.9510137809991
 51
124.486467111925
  0
LINE
  5
B9
  8
0
  6
CONTINUOUS
 62
     7
 10
-0.4409674804568303
 20
-0.0790675735023826
 30
0.0
 11
-0.4903926402016142
 21
-0.0975451610080637
 31
0.0
  0
ARC
  5
BA
  8
0
  6
CONTINUOUS
 62
     7
 10
0.0000000000000872
 20
0.0000000000000059
 30
0.0
 40
0.4480000000000873
 50
184.8346144789527
 51
190.1653855210459
  0
LINE
  5
BB
  8
0
  6
CONTINUOUS
 62
     7
 10
-0.4989294616193006
 20
-0.0327015646150715
 30
0.0
 11
-0.4464060717993328
 21
-0.0377573709451406
 31
0.0
  0
ARC
  5
BC
  8
0
  6
CONTINUOUS
 62
     7
 10
-0.4299043525245171
 20
0.2934067692642721
 30
0.0
 40
0.3333333333333296
 50
250.5135328880737
 51
258.0489862190001
  0
CIRCLE
  5
BD
  8
0
  6
CONTINUOUS
 62
     7
 10
0.0
 20
0.0
 30
0.0
 40
0.1874
  0
LINE
  5
BE
  8
0
  6
MITTE
 62
     3
 10
-0.2115079517585441
 20
0.0
 30
0.0
 11
0.2115079517585441
 21
0.0
 31
0.0
  0
LINE
  5
BF
  8
0
  6
MITTE
 62
     3
 10
0.0
 20
-0.2115079517585441
 30
0.0
 11
0.0
 21
0.2115079517585441
 31
0.0
  0
ATTDEF
  5
C0
  8
ATTRIB
 10
0.0
 20
0.0
 30
0.0
 40
1.0
  1
W.M.Berg
  3

  2
Company
 70
     9
  0
ATTDEF
  5
C1
  8
ATTRIB
 10
0.0
 20
0.0
 30
0.0
 40
1.0
  1
F24A6-24
  3

  2
NB
 70
     9
  0
ATTDEF
  5
C2
  8
ATTRIB
 10
0.0
 20
0.0
 30
0.0
 40
1.0
  1
F24A6 & F24S6
  3

  2
NN
 70
     9
  0
ATTDEF
  5
C3
  8
ATTRIB
 10
0.0
 20
0.0
 30
0.0
 40
1.0
  1
Precision Spur Gears - 24 Pitch - 3/8" Bore - 1/4" Face - AGMA Quality 10 - Flat Hubless Style - 20° Pressure Angle
  3

  2
NT
 70
     9
  0
ATTDEF
  5
C4
  8
ATTRIB
 10
0.0
 20
0.0
 30
0.0
 40
1.0
  1
F24A6-24
  3

  2
LINA
 70
     9
  0
ATTDEF
  5
C5
  8
ATTRIB
 10
0.0
 20
0.0
 30
0.0
 40
1.0
  1
F24A6-24
  3

  2
PN
 70
     9
  0
ATTDEF
  5
C6
  8
ATTRIB
 10
0.0
 20
0.0
 30
0.0
 40
1.0
  1
HUBLESS SPUR GEAR
  3

  2
DES
 70
     9
  0
ATTDEF
  5
C7
  8
ATTRIB
 10
0.0
 20
0.0
 30
0.0
 40
1.0
  1
Master Inch/Metric Catalog
  3

  2
CN
 70
     9
  0
ATTDEF
  5
C8
  8
ATTRIB
 10
0.0
 20
0.0
 30
0.0
 40
1.0
  1
B92
  3

  2
CP
 70
     9
  0
ATTDEF
  5
C9
  8
ATTRIB
 10
0.0
 20
0.0
 30
0.0
 40
1.0
  1
2024T4 Aluminum Anodized
  3

  2
MAT
 70
     9
  0
ATTDEF
  5
CA
  8
ATTRIB
 10
0.0
 20
0.0
 30
0.0
 40
1.0
  1
24
  3

  2
DP
 70
     9
  0
ATTDEF
  5
CB
  8
ATTRIB
 10
0.0
 20
0.0
 30
0.0
 40
1.0
  1
20
  3

  2
PA
 70
     9
  0
ATTDEF
  5
CC
  8
ATTRIB
 10
0.0
 20
0.0
 30
0.0
 40
1.0
  1
24
  3

  2
N
 70
     9
  0
ATTDEF
  5
CD
  8
ATTRIB
 10
0.0
 20
0.0
 30
0.0
 40
1.0
  1
1.0000
  3

  2
PD
 70
     9
  0
ATTDEF
  5
CE
  8
ATTRIB
 10
0.0
 20
0.0
 30
0.0
 40
1.0
  1
1.083
  3

  2
OD
 70
     9
  0
ATTDEF
  5
CF
  8
ATTRIB
 10
0.0
 20
0.0
 30
0.0
 40
1.0
  1
0.3748
  3

  2
B
 70
     9
  0
ATTDEF
  5
D0
  8
ATTRIB
 10
0.0
 20
0.0
 30
0.0
 40
1.0
  1
1/4
  3

  2
FW
 70
     9
  0
ATTDEF
  5
D1
  8
ATTRIB
 10
0.0
 20
0.0
 30
0.0
 40
1.0
  1
0.2500
  3

  2
FW1
 70
     9
  0
ATTDEF
  5
D2
  8
ATTRIB
 10
0.0
 20
0.0
 30
0.0
 40
1.0
  1
DUMMY
  3

  2
KT
 70
     9
  0
ENDSEC
  0
EOF
