  0
SECTION
  2
HEADER
  9
$ACADVER
  1
AC1009
  9
$DWGCODEPAGE
  3
dos850
  9
$INSBASE
 10
0.0
 20
0.0
 30
0.0
  9
$EXTMIN
 10
0.0
 20
0.0
 30
0.0
  9
$EXTMAX
 10
1000.0
 20
1000.0
 30
1000.0
  9
$LIMMIN
 10
0.0
 20
0.0
  9
$LIMMAX
 10
12.0
 20
9.0
  9
$ORTHOMODE
 70
     0
  9
$REGENMODE
 70
     1
  9
$FILLMODE
 70
     1
  9
$QTEXTMODE
 70
     0
  9
$MIRRTEXT
 70
     1
  9
$DRAGMODE
 70
     2
  9
$LTSCALE
 40
1.0
  9
$OSMODE
 70
    37
  9
$ATTMODE
 70
     1
  9
$TEXTSIZE
 40
0.2
  9
$TRACEWID
 40
0.05
  9
$TEXTSTYLE
  7
STANDARD
  9
$CLAYER
  8
0
  9
$CELTYPE
  6
BYLAYER
  9
$CECOLOR
 62
   256
  9
$DIMSCALE
 40
1.0
  9
$DIMASZ
 40
0.18
  9
$DIMEXO
 40
0.0625
  9
$DIMDLI
 40
0.38
  9
$DIMRND
 40
0.0
  9
$DIMDLE
 40
0.0
  9
$DIMEXE
 40
0.18
  9
$DIMTP
 40
0.0
  9
$DIMTM
 40
0.0
  9
$DIMTXT
 40
0.18
  9
$DIMCEN
 40
0.09
  9
$DIMTSZ
 40
0.0
  9
$DIMTOL
 70
     0
  9
$DIMLIM
 70
     0
  9
$DIMTIH
 70
     1
  9
$DIMTOH
 70
     1
  9
$DIMSE1
 70
     0
  9
$DIMSE2
 70
     0
  9
$DIMTAD
 70
     0
  9
$DIMZIN
 70
     0
  9
$DIMBLK
  1

  9
$DIMASO
 70
     1
  9
$DIMSHO
 70
     1
  9
$DIMPOST
  1

  9
$DIMAPOST
  1

  9
$DIMALT
 70
     0
  9
$DIMALTD
 70
     2
  9
$DIMALTF
 40
25.4
  9
$DIMLFAC
 40
1.0
  9
$DIMTOFL
 70
     0
  9
$DIMTVP
 40
0.0
  9
$DIMTIX
 70
     0
  9
$DIMSOXD
 70
     0
  9
$DIMSAH
 70
     0
  9
$DIMBLK1
  1

  9
$DIMBLK2
  1

  9
$DIMSTYLE
  2
STANDARD
  9
$DIMCLRD
 70
     0
  9
$DIMCLRE
 70
     0
  9
$DIMCLRT
 70
     0
  9
$DIMTFAC
 40
1.0
  9
$DIMGAP
 40
0.09
  9
$LUNITS
 70
     2
  9
$LUPREC
 70
     4
  9
$SKETCHINC
 40
0.1
  9
$FILLETRAD
 40
0.5
  9
$AUNITS
 70
     0
  9
$AUPREC
 70
     0
  9
$MENU
  1
.
  9
$ELEVATION
 40
0.0
  9
$PELEVATION
 40
0.0
  9
$THICKNESS
 40
0.0
  9
$LIMCHECK
 70
     0
  9
$CHAMFERA
 40
0.5
  9
$CHAMFERB
 40
0.5
  9
$SKPOLY
 70
     0
  9
$TDCREATE
 40
2454907.937777778
  9
$TDUPDATE
 40
2454907.937777778
  9
$TDINDWG
 40
0.0000000116
  9
$TDUSRTIMER
 40
0.0000000116
  9
$USRTIMER
 70
     1
  9
$ANGBASE
 50
0.0
  9
$ANGDIR
 70
     0
  9
$PDMODE
 70
     0
  9
$PDSIZE
 40
0.0
  9
$PLINEWID
 40
0.0
  9
$COORDS
 70
     1
  9
$SPLFRAME
 70
     0
  9
$SPLINETYPE
 70
     6
  9
$SPLINESEGS
 70
     8
  9
$ATTDIA
 70
     0
  9
$ATTREQ
 70
     1
  9
$HANDLING
 70
     1
  9
$HANDSEED
  5
169
  9
$SURFTAB1
 70
     6
  9
$SURFTAB2
 70
     6
  9
$SURFTYPE
 70
     6
  9
$SURFU
 70
     6
  9
$SURFV
 70
     6
  9
$UCSNAME
  2

  9
$UCSORG
 10
0.0
 20
0.0
 30
0.0
  9
$UCSXDIR
 10
1.0
 20
0.0
 30
0.0
  9
$UCSYDIR
 10
0.0
 20
1.0
 30
0.0
  9
$PUCSNAME
  2

  9
$PUCSORG
 10
0.0
 20
0.0
 30
0.0
  9
$PUCSXDIR
 10
1.0
 20
0.0
 30
0.0
  9
$PUCSYDIR
 10
0.0
 20
1.0
 30
0.0
  9
$USERI1
 70
     0
  9
$USERI2
 70
     0
  9
$USERI3
 70
     0
  9
$USERI4
 70
     0
  9
$USERI5
 70
     0
  9
$USERR1
 40
0.0
  9
$USERR2
 40
0.0
  9
$USERR3
 40
0.0
  9
$USERR4
 40
0.0
  9
$USERR5
 40
0.0
  9
$WORLDVIEW
 70
     1
  9
$SHADEDGE
 70
     3
  9
$SHADEDIF
 70
    70
  9
$TILEMODE
 70
     1
  9
$MAXACTVP
 70
    64
  9
$PLIMCHECK
 70
     0
  9
$PEXTMIN
 10
0.0
 20
0.0
 30
0.0
  9
$PEXTMAX
 10
1000.0
 20
1000.0
 30
0.0
  9
$PLIMMIN
 10
0.0
 20
0.0
  9
$PLIMMAX
 10
100.0
 20
100.0
  9
$UNITMODE
 70
     0
  9
$VISRETAIN
 70
     1
  9
$PLINEGEN
 70
     0
  9
$PSLTSCALE
 70
     1
  0
ENDSEC
  0
SECTION
  2
TABLES
  0
TABLE
  2
VPORT
 70
     1
  0
VPORT
  2
*ACTIVE
 70
     0
 10
0.0
 20
0.0
 11
1.0
 21
1.0
 12
2.836392857142858
 22
-0.0000000000000009
 13
0.0
 23
0.0
 14
0.5
 24
0.5
 15
0.5
 25
0.5
 16
0.0
 26
0.0
 36
1.0
 17
0.0
 27
0.0
 37
0.0
 40
4.009634970895039
 41
1.972972972850329
 42
50.0
 43
0.0
 44
0.0
 50
0.0
 51
0.0
 71
     0
 72
   100
 73
     1
 74
     3
 75
     0
 76
     0
 77
     0
 78
     0
  0
ENDTAB
  0
TABLE
  2
LTYPE
 70
     3
  0
LTYPE
  2
CONTINUOUS
 70
     0
  3
Solid line
 72
    65
 73
     0
 40
0.0
  0
LTYPE
  2
GESTRICHELT
 70
     0
  3

 72
    65
 73
     2
 40
2.0
 49
1.0
 49
-1.0
  0
LTYPE
  2
MITTE
 70
     0
  3

 72
    65
 73
     4
 40
2.0
 49
0.45
 49
-0.5
 49
0.05
 49
-0.5
  0
ENDTAB
  0
TABLE
  2
LAYER
 70
     2
  0
LAYER
  2
0
 70
     0
 62
     7
  6
CONTINUOUS
  0
LAYER
  2
ATTRIB
 70
     0
 62
    -7
  6
CONTINUOUS
  0
ENDTAB
  0
TABLE
  2
STYLE
 70
     1
  0
STYLE
  2
STANDARD
 70
     0
 40
0.0
 41
1.0
 50
0.0
 71
     0
 42
0.2
  3
txt
  4

  0
ENDTAB
  0
TABLE
  2
VIEW
 70
     0
  0
ENDTAB
  0
TABLE
  2
UCS
 70
     0
  0
ENDTAB
  0
TABLE
  2
APPID
 70
     1
  0
APPID
  2
ACAD
 70
     0
  0
ENDTAB
  0
TABLE
  2
DIMSTYLE
 70
     1
  0
DIMSTYLE
  2
STANDARD
 70
     0
  3

  4

  5

  6

  7

 40
1.0
 41
0.18
 42
0.0625
 43
0.38
 44
0.18
 45
0.0
 46
0.0
 47
0.0
 48
0.0
140
0.18
141
0.09
142
0.0
143
25.4
144
1.0
145
0.0
146
1.0
147
0.09
 71
     0
 72
     0
 73
     1
 74
     1
 75
     0
 76
     0
 77
     0
 78
     0
170
     0
171
     2
172
     0
173
     0
174
     0
175
     0
176
     0
177
     0
178
     0
  0
ENDTAB
  0
ENDSEC
  0
SECTION
  2
BLOCKS
  0
BLOCK
  8
0
  2
$MODEL_SPACE
 70
     0
 10
0.0
 20
0.0
 30
0.0
  3
$MODEL_SPACE
  1

  0
ENDBLK
  5
21
  8
0
  0
BLOCK
 67
     1
  8
0
  2
$PAPER_SPACE
 70
     0
 10
0.0
 20
0.0
 30
0.0
  3
$PAPER_SPACE
  1

  0
ENDBLK
  5
1D
 67
     1
  8
0
  0
ENDSEC
  0
SECTION
  2
ENTITIES
  0
ARC
  5
2D
  8
0
  6
CONTINUOUS
 62
     7
 10
0.0000000000020668
 20
-0.0000000000000109
 30
0.0
 40
1.041500000002067
 50
178.8538245890865
 51
181.1461754109122
  0
ARC
  5
2E
  8
0
  6
CONTINUOUS
 62
     7
 10
-0.8382467241140656
 20
-0.6141605388833449
 30
0.0
 40
0.6666666666666832
 50
103.9943843987085
 51
107.7321354975578
  0
LINE
  5
2F
  8
0
  6
CONTINUOUS
 62
     7
 10
-0.9471043693619999
 20
0.0411984652069425
 30
0.0
 11
-0.9994645874763714
 21
0.0327190828217752
 31
0.0
  0
ARC
  5
30
  8
0
  6
CONTINUOUS
 62
     7
 10
-0.0000000000059009
 20
0.0000000000005209
 30
0.0
 40
0.947999999994076
 50
174.9907614202179
 51
177.5092385797982
  0
LINE
  5
31
  8
0
  6
CONTINUOUS
 62
     7
 10
-0.9951847266722029
 20
0.0980171403295628
 30
0.0
 11
-0.9443792389774109
 21
0.0827759203418846
 31
0.0
  0
ARC
  5
32
  8
0
  6
CONTINUOUS
 62
     7
 10
-0.7509113706342101
 20
0.7183194633736623
 30
0.0
 40
0.6666666666663108
 50
244.7678645024412
 51
248.5056156012925
  0
ARC
  5
33
  8
0
  6
CONTINUOUS
 62
     7
 10
0.0000000000008447
 20
-0.0000000000001009
 30
0.0
 40
1.041500000000851
 50
171.3538245890863
 51
173.6461754109148
  0
ARC
  5
34
  8
0
  6
CONTINUOUS
 62
     7
 10
-0.9112394437385455
 20
-0.499493157295018
 30
0.0
 40
0.6666666666667827
 50
96.49438439871037
 51
100.2321354975591
  0
LINE
  5
35
  8
0
  6
CONTINUOUS
 62
     7
 10
-0.9336242813998656
 20
0.164467933593706
 30
0.0
 11
-0.9866433320848844
 21
0.1628954733945886
 31
0.0
  0
ARC
  5
36
  8
0
  6
CONTINUOUS
 62
     7
 10
-0.0000000000058614
 20
0.0000000000012948
 30
0.0
 40
0.947999999993997
 50
167.4907614202174
 51
170.0092385797979
  0
LINE
  5
37
  8
0
  6
CONTINUOUS
 62
     7
 10
-0.9738769792773391
 20
0.227076263034376
 30
0.0
 11
-0.9254955179825271
 21
0.2053339869438409
 31
0.0
  0
ARC
  5
38
  8
0
  6
CONTINUOUS
 62
     7
 10
-0.6507277154105025
 20
0.8101877426906292
 30
0.0
 40
0.6666666666667707
 50
237.2678645024427
 51
241.0056156012913
  0
ARC
  5
39
  8
0
  6
CONTINUOUS
 62
     7
 10
-0.0000000000003539
 20
0.0000000000001229
 30
0.0
 40
1.041499999999626
 50
163.8538245890859
 51
166.1461754109172
  0
ARC
  5
3A
  8
0
  6
CONTINUOUS
 62
     7
 10
-0.9686406038374181
 20
-0.3762793092993823
 30
0.0
 40
0.6666666666665495
 50
88.99438439870841
 51
92.73213549755847
  0
LINE
  5
3B
  8
0
  6
CONTINUOUS
 62
     7
 10
-0.9041696231334269
 20
0.2849233100375553
 30
0.0
 11
-0.9569403357322133
 21
0.2902846772544628
 31
0.0
  0
ARC
  5
3C
  8
0
  6
CONTINUOUS
 62
     7
 10
-0.0000000000032442
 20
0.0000000000012145
 30
0.0
 40
0.947999999996536
 50
159.9907614202196
 51
162.5092385797934
  0
LINE
  5
3D
  8
0
  6
CONTINUOUS
 62
     7
 10
-0.9359059267573308
 20
0.352250047921237
 30
0.0
 11
-0.8907763120791282
 21
0.3243787320998517
 31
0.0
  0
ARC
  5
3E
  8
0
  6
CONTINUOUS
 62
     7
 10
-0.5394099285605662
 20
0.8881934851031617
 30
0.0
 40
0.6666666666666514
 50
229.7678645024419
 51
233.5056156012913
  0
ARC
  5
3F
  8
0
  6
CONTINUOUS
 62
     7
 10
-0.0000000000006269
 20
0.0000000000002675
 30
0.0
 40
1.041499999999318
 50
156.3538245890844
 51
158.6461754109164
  0
ARC
  5
40
  8
0
  6
CONTINUOUS
 62
     7
 10
-1.009468054646672
 20
-0.2466272179975266
 30
0.0
 40
0.6666666666665466
 50
81.49438439870843
 51
85.23213549755853
  0
LINE
  5
41
  8
0
  6
CONTINUOUS
 62
     7
 10
-0.859244371931996
 20
0.4005035696509967
 30
0.0
 11
-0.9108638249211801
 21
0.4127070298043958
 31
0.0
  0
ARC
  5
42
  8
0
  6
CONTINUOUS
 62
     7
 10
-0.0000000000023543
 20
0.0000000000012236
 30
0.0
 40
0.9479999999973467
 50
152.4907614202176
 51
155.0092385797892
  0
LINE
  5
43
  8
0
  6
CONTINUOUS
 62
     7
 10
-0.8819212643483583
 20
0.4713967368260007
 30
0.0
 11
-0.8408156765062036
 21
0.4378732672148589
 31
0.0
  0
ARC
  5
44
  8
0
  6
CONTINUOUS
 62
     7
 10
-0.4188626882801408
 20
0.9510019907320053
 30
0.0
 40
0.6666666666667593
 50
222.2678645024427
 51
226.0056156012916
  0
ARC
  5
45
  8
0
  6
CONTINUOUS
 62
     7
 10
0.0000000000010011
 20
-0.0000000000005901
 30
0.0
 40
1.041500000001162
 50
148.8538245890856
 51
151.1461754109134
  0
ARC
  5
46
  8
0
  6
CONTINUOUS
 62
     7
 10
-1.03302322716356
 20
-0.112755266618
 30
0.0
 40
0.6666666666667998
 50
73.9943843987093
 51
77.73213549755808
  0
LINE
  5
47
  8
0
  6
CONTINUOUS
 62
     7
 10
-0.7996172112992623
 20
0.5092311021471421
 30
0.0
 11
-0.849202181526582
 21
0.5280678506503691
 31
0.0
  0
ARC
  5
48
  8
0
  6
CONTINUOUS
 62
     7
 10
-0.0000000000030095
 20
0.0000000000019773
 30
0.0
 40
0.9479999999964005
 50
144.9907614202112
 51
147.5092385797854
  0
LINE
  5
49
  8
0
  6
CONTINUOUS
 62
     7
 10
-0.8128466845916179
 20
0.5824776968678055
 30
0.0
 11
-0.7764684515901109
 21
0.5438756693264145
 31
0.0
  0
ARC
  5
4A
  8
0
  6
CONTINUOUS
 62
     7
 10
-0.2911485912729374
 20
0.9975385886315442
 30
0.0
 40
0.6666666666663755
 50
214.7678645024417
 51
218.5056156012928
  0
ARC
  5
4B
  8
0
  6
CONTINUOUS
 62
     7
 10
-0.000000000000181
 20
0.0000000000001111
 30
0.0
 40
1.041499999999789
 50
141.3538245890833
 51
143.6461754109143
  0
ARC
  5
4C
  8
0
  6
CONTINUOUS
 62
     7
 10
-1.038903085855505
 20
0.0230459586353117
 30
0.0
 40
0.6666666666667692
 50
66.49438439870818
 51
70.23213549755721
  0
LINE
  5
4D
  8
0
  6
CONTINUOUS
 62
     7
 10
-0.7263083784854229
 20
0.6092455493000148
 30
0.0
 11
-0.773010453362739
 21
0.6343932841636466
 31
0.0
  0
ARC
  5
4E
  8
0
  6
CONTINUOUS
 62
     7
 10
-0.0000000000003456
 20
0.0000000000003398
 30
0.0
 40
0.9479999999995156
 50
137.4907614202188
 51
140.0092385797846
  0
LINE
  5
4F
  8
0
  6
CONTINUOUS
 62
     7
 10
-0.7298640726978379
 20
0.6835923020228749
 30
0.0
 11
-0.698835636189586
 21
0.6405722079449722
 31
0.0
  0
ARC
  5
50
  8
0
  6
CONTINUOUS
 62
     7
 10
-0.158452861146852
 20
1.027007024710084
 30
0.0
 40
0.6666666666667062
 50
207.2678645024434
 51
211.0056156012925
  0
ARC
  5
51
  8
0
  6
CONTINUOUS
 62
     7
 10
0.0000000000000197
 20
0.0000000000000004
 30
0.0
 40
1.041500000000013
 50
133.8538245890855
 51
136.146175410916
  0
ARC
  5
52
  8
0
  6
CONTINUOUS
 62
     7
 10
-1.027007024709986
 20
0.1584528611470335
 30
0.0
 40
0.6666666666665012
 50
58.99438439870659
 51
62.73213549755702
  0
LINE
  5
53
  8
0
  6
CONTINUOUS
 62
     7
 10
-0.6405722079449726
 20
0.6988356361895866
 30
0.0
 11
-0.6835923020228744
 21
0.7298640726978377
 31
0.0
  0
ARC
  5
54
  8
0
  6
CONTINUOUS
 62
     7
 10
-0.0000000000006695
 20
0.0000000000008005
 30
0.0
 40
0.9479999999989563
 50
129.9907614202178
 51
132.5092385797852
  0
LINE
  5
55
  8
0
  6
CONTINUOUS
 62
     7
 10
-0.6343932841636464
 20
0.7730104533627391
 30
0.0
 11
-0.6092455493000144
 21
0.7263083784854224
 31
0.0
  0
ARC
  5
56
  8
0
  6
CONTINUOUS
 62
     7
 10
-0.0230459586352603
 20
1.038903085855522
 30
0.0
 40
0.6666666666668227
 50
199.7678645024426
 51
203.5056156012913
  0
ARC
  5
57
  8
0
  6
CONTINUOUS
 62
     7
 10
0.0000000000003713
 20
-0.0000000000005131
 30
0.0
 40
1.041500000000633
 50
126.3538245890845
 51
128.6461754109135
  0
ARC
  5
58
  8
0
  6
CONTINUOUS
 62
     7
 10
-0.9975385886316033
 20
0.2911485912728181
 30
0.0
 40
0.6666666666665062
 50
51.49438439870951
 51
55.23213549755991
  0
LINE
  5
59
  8
0
  6
CONTINUOUS
 62
     7
 10
-0.5438756693264144
 20
0.776468451590111
 30
0.0
 11
-0.5824776968678047
 21
0.8128466845916176
 31
0.0
  0
ARC
  5
5A
  8
0
  6
CONTINUOUS
 62
     7
 10
-0.0000000000004978
 20
0.0000000000007703
 30
0.0
 40
0.947999999999083
 50
122.4907614202173
 51
125.0092385797844
  0
LINE
  5
5B
  8
0
  6
CONTINUOUS
 62
     7
 10
-0.5280678506503691
 20
0.8492021815265824
 30
0.0
 11
-0.5092311021471415
 21
0.7996172112992614
 31
0.0
  0
ARC
  5
5C
  8
0
  6
CONTINUOUS
 62
     7
 10
0.1127552666184559
 20
1.033023227163673
 30
0.0
 40
0.6666666666672696
 50
192.2678645024429
 51
196.0056156012892
  0
ARC
  5
5D
  8
0
  6
CONTINUOUS
 62
     7
 10
0.0000000000012076
 20
-0.0000000000021674
 30
0.0
 40
1.041500000002481
 50
118.8538245890854
 51
121.1461754109104
  0
ARC
  5
5E
  8
0
  6
CONTINUOUS
 62
     7
 10
-0.9510019907319245
 20
0.4188626882802298
 30
0.0
 40
0.6666666666666397
 50
43.9943843987076
 51
47.73213549755731
  0
LINE
  5
5F
  8
0
  6
CONTINUOUS
 62
     7
 10
-0.437873267214859
 20
0.8408156765062039
 30
0.0
 11
-0.4713967368259996
 21
0.8819212643483573
 31
0.0
  0
ARC
  5
60
  8
0
  6
CONTINUOUS
 62
     7
 10
-0.0000000000009956
 20
0.0000000000020405
 30
0.0
 40
0.9479999999977297
 50
114.9907614202153
 51
117.5092385797859
  0
LINE
  5
61
  8
0
  6
CONTINUOUS
 62
     7
 10
-0.4127070298043952
 20
0.9108638249211787
 30
0.0
 11
-0.4005035696509964
 21
0.8592443719319953
 31
0.0
  0
ARC
  5
62
  8
0
  6
CONTINUOUS
 62
     7
 10
0.2466272179976855
 20
1.009468054646693
 30
0.0
 40
0.6666666666667064
 50
184.7678645024421
 51
188.5056156012914
  0
ARC
  5
63
  8
0
  6
CONTINUOUS
 62
     7
 10
0.0000000000001329
 20
-0.0000000000002657
 30
0.0
 40
1.041500000000296
 50
111.3538245890863
 51
113.6461754109161
  0
ARC
  5
64
  8
0
  6
CONTINUOUS
 62
     7
 10
-0.8881934851031885
 20
0.5394099285605358
 30
0.0
 40
0.6666666666666912
 50
36.49438439870917
 51
40.23213549755858
  0
LINE
  5
65
  8
0
  6
CONTINUOUS
 62
     7
 10
-0.3243787320998505
 20
0.8907763120791268
 30
0.0
 11
-0.3522500479212354
 21
0.9359059267573285
 31
0.0
  0
ARC
  5
66
  8
0
  6
CONTINUOUS
 62
     7
 10
-0.0000000000002092
 20
0.0000000000008151
 30
0.0
 40
0.9479999999991597
 50
107.4907614202205
 51
110.0092385797873
  0
LINE
  5
67
  8
0
  6
CONTINUOUS
 62
     7
 10
-0.2902846772544624
 20
0.9569403357322106
 30
0.0
 11
-0.2849233100375553
 21
0.9041696231334269
 31
0.0
  0
ARC
  5
68
  8
0
  6
CONTINUOUS
 62
     7
 10
0.376279309299149
 20
0.96864060383744
 30
0.0
 40
0.6666666666663151
 50
177.2678645024425
 51
181.005615601294
  0
ARC
  5
69
  8
0
  6
CONTINUOUS
 62
     7
 10
-0.0000000000000669
 20
0.0000000000002449
 30
0.0
 40
1.041499999999746
 50
103.8538245890845
 51
106.1461754109154
  0
ARC
  5
6A
  8
0
  6
CONTINUOUS
 62
     7
 10
-0.8101877426906735
 20
0.6507277154104719
 30
0.0
 40
0.6666666666668242
 50
28.99438439870873
 51
32.73213549755755
  0
LINE
  5
6B
  8
0
  6
CONTINUOUS
 62
     7
 10
-0.2053339869438401
 20
0.9254955179825261
 30
0.0
 11
-0.2270762630343739
 21
0.9738769792773349
 31
0.0
  0
ARC
  5
6C
  8
0
  6
CONTINUOUS
 62
     7
 10
-0.0000000000002226
 20
0.000000000001531
 30
0.0
 40
0.9479999999984535
 50
99.99076142022052
 51
102.5092385797892
  0
LINE
  5
6D
  8
0
  6
CONTINUOUS
 62
     7
 10
-0.1628954733945886
 20
0.9866433320848808
 30
0.0
 11
-0.1644679335937059
 21
0.933624281399866
 31
0.0
  0
ARC
  5
6E
  8
0
  6
CONTINUOUS
 62
     7
 10
0.4994931572949308
 20
0.9112394437385866
 30
0.0
 40
0.6666666666666904
 50
169.7678645024432
 51
173.5056156012927
  0
ARC
  5
6F
  8
0
  6
CONTINUOUS
 62
     7
 10
-0.0000000000001625
 20
0.0000000000014089
 30
0.0
 40
1.041499999998582
 50
96.35382458908454
 51
98.64617541091803
  0
ARC
  5
70
  8
0
  6
CONTINUOUS
 62
     7
 10
-0.7183194633739191
 20
0.750911370634084
 30
0.0
 40
0.6666666666665961
 50
21.49438439870923
 51
25.23213549755918
  0
LINE
  5
71
  8
0
  6
CONTINUOUS
 62
     7
 10
-0.0827759203418845
 20
0.9443792389774113
 30
0.0
 11
-0.0980171403295616
 21
0.9951847266721998
 31
0.0
  0
ARC
  5
72
  8
0
  6
CONTINUOUS
 62
     7
 10
0.0000000000000112
 20
-0.0000000000002042
 30
0.0
 40
0.9480000000002044
 50
92.49076142021785
 51
95.00923857978189
  0
LINE
  5
73
  8
0
  6
CONTINUOUS
 62
     7
 10
-0.0327190828217757
 20
0.9994645874763677
 30
0.0
 11
-0.0411984652069424
 21
0.9471043693620003
 31
0.0
  0
ARC
  5
74
  8
0
  6
CONTINUOUS
 62
     7
 10
0.6141605388834966
 20
0.8382467241140263
 30
0.0
 40
0.6666666666668391
 50
162.2678645024431
 51
166.0056156012917
  0
ARC
  5
75
  8
0
  6
CONTINUOUS
 62
     7
 10
0.0000000000000332
 20
0.0000000000001839
 30
0.0
 40
1.041499999999816
 50
88.85382458908644
 51
91.14617541091725
  0
ARC
  5
76
  8
0
  6
CONTINUOUS
 62
     7
 10
-0.6141605388835061
 20
0.838246724114013
 30
0.0
 40
0.6666666666668518
 50
13.99438439870932
 51
17.73213549755783
  0
LINE
  5
77
  8
0
  6
CONTINUOUS
 62
     7
 10
0.0411984652069425
 20
0.947104369362
 30
0.0
 11
0.0327190828217755
 21
0.9994645874763685
 31
0.0
  0
ARC
  5
78
  8
0
  6
CONTINUOUS
 62
     7
 10
0.0000000000007521
 20
0.0000000000085603
 30
0.0
 40
0.9479999999914067
 50
84.99076142021777
 51
87.5092385798052
  0
LINE
  5
79
  8
0
  6
CONTINUOUS
 62
     7
 10
0.0980171403295657
 20
0.9951847266722106
 30
0.0
 11
0.0827759203418852
 21
0.9443792389774109
 31
0.0
  0
ARC
  5
7A
  8
0
  6
CONTINUOUS
 62
     7
 10
0.7183194633739419
 20
0.7509113706340778
 30
0.0
 40
0.6666666666666201
 50
154.7678645024412
 51
158.50561560129
  0
ARC
  5
7B
  8
0
  6
CONTINUOUS
 62
     7
 10
0.0000000000000467
 20
0.0000000000003209
 30
0.0
 40
1.041499999999676
 50
81.35382458908462
 51
83.64617541091582
  0
ARC
  5
7C
  8
0
  6
CONTINUOUS
 62
     7
 10
-0.4994931572948229
 20
0.911239443738588
 30
0.0
 40
0.6666666666665847
 50
6.494384398708793
 51
10.23213549755841
  0
LINE
  5
7D
  8
0
  6
CONTINUOUS
 62
     7
 10
0.1644679335937061
 20
0.9336242813998666
 30
0.0
 11
0.162895473394589
 21
0.9866433320848865
 31
0.0
  0
ARC
  5
7E
  8
0
  6
CONTINUOUS
 62
     7
 10
0.0000000000040804
 20
0.000000000018985
 30
0.0
 40
0.9479999999805816
 50
77.49076142020989
 51
80.00923857982609
  0
LINE
  5
7F
  8
0
  6
CONTINUOUS
 62
     7
 10
0.2270762630343792
 20
0.9738769792773447
 30
0.0
 11
0.2053339869438415
 21
0.9254955179825269
 31
0.0
  0
ARC
  5
80
  8
0
  6
CONTINUOUS
 62
     7
 10
0.8101877426907416
 20
0.6507277154104381
 30
0.0
 40
0.6666666666668998
 50
147.2678645024433
 51
151.0056156012906
  0
ARC
  5
81
  8
0
  6
CONTINUOUS
 62
     7
 10
-0.0000000000001345
 20
-0.000000000000604
 30
0.0
 40
1.041500000000618
 50
73.8538245890869
 51
76.146175410916
  0
ARC
  5
82
  8
0
  6
CONTINUOUS
 62
     7
 10
-0.3762793092995236
 20
0.9686406038374064
 30
0.0
 40
0.6666666666666912
 50
358.9943843987096
 51
2.732135497558886
  0
LINE
  5
83
  8
0
  6
CONTINUOUS
 62
     7
 10
0.2849233100375554
 20
0.9041696231334255
 30
0.0
 11
0.2902846772544634
 21
0.9569403357322153
 31
0.0
  0
ARC
  5
84
  8
0
  6
CONTINUOUS
 62
     7
 10
0.000000000005013
 20
0.0000000000141321
 30
0.0
 40
0.9479999999850055
 50
69.99076142021009
 51
72.50923857981455
  0
LINE
  5
85
  8
0
  6
CONTINUOUS
 62
     7
 10
0.3522500479212399
 20
0.9359059267573344
 30
0.0
 11
0.3243787320998523
 21
0.890776312079128
 31
0.0
  0
ARC
  5
86
  8
0
  6
CONTINUOUS
 62
     7
 10
0.8881934851033113
 20
0.5394099285604532
 30
0.0
 40
0.6666666666668386
 50
139.7678645024429
 51
143.5056156012908
  0
ARC
  5
87
  8
0
  6
CONTINUOUS
 62
     7
 10
0.0000000000000559
 20
0.0000000000001199
 30
0.0
 40
1.041499999999868
 50
66.35382458908491
 51
68.64617541091567
  0
ARC
  5
88
  8
0
  6
CONTINUOUS
 62
     7
 10
-0.2466272179976259
 20
1.009468054646685
 30
0.0
 40
0.6666666666666472
 50
351.4943843987086
 51
355.232135497558
  0
LINE
  5
89
  8
0
  6
CONTINUOUS
 62
     7
 10
0.4005035696509967
 20
0.8592443719319958
 30
0.0
 11
0.4127070298043964
 21
0.9108638249211812
 31
0.0
  0
ARC
  5
8A
  8
0
  6
CONTINUOUS
 62
     7
 10
0.0000000000075157
 20
0.0000000000146069
 30
0.0
 40
0.9479999999835731
 50
62.4907614202128
 51
65.00923857982102
  0
LINE
  5
8B
  8
0
  6
CONTINUOUS
 62
     7
 10
0.4713967368260056
 20
0.8819212643483634
 30
0.0
 11
0.4378732672148593
 21
0.8408156765062033
 31
0.0
  0
ARC
  5
8C
  8
0
  6
CONTINUOUS
 62
     7
 10
0.9510019907318339
 20
0.4188626882803191
 30
0.0
 40
0.666666666666512
 50
132.2678645024421
 51
136.0056156012918
  0
ARC
  5
8D
  8
0
  6
CONTINUOUS
 62
     7
 10
-0.0000000000002881
 20
-0.0000000000005161
 30
0.0
 40
1.041500000000591
 50
58.8538245890859
 51
61.14617541091504
  0
ARC
  5
8E
  8
0
  6
CONTINUOUS
 62
     7
 10
-0.1127552666181934
 20
1.033023227163602
 30
0.0
 40
0.6666666666669978
 50
343.9943843987106
 51
347.7321354975582
  0
LINE
  5
8F
  8
0
  6
CONTINUOUS
 62
     7
 10
0.5092311021471419
 20
0.7996172112992616
 30
0.0
 11
0.5280678506503704
 21
0.8492021815265841
 31
0.0
  0
ARC
  5
90
  8
0
  6
CONTINUOUS
 62
     7
 10
0.0000000000094648
 20
0.0000000000136142
 30
0.0
 40
0.947999999983419
 50
54.99076142021414
 51
57.5092385798228
  0
LINE
  5
91
  8
0
  6
CONTINUOUS
 62
     7
 10
0.5824776968678117
 20
0.8128466845916229
 30
0.0
 11
0.5438756693264151
 21
0.7764684515901105
 31
0.0
  0
ARC
  5
92
  8
0
  6
CONTINUOUS
 62
     7
 10
0.9975385886316847
 20
0.2911485912727346
 30
0.0
 40
0.666666666666622
 50
124.7678645024417
 51
128.5056156012907
  0
ARC
  5
93
  8
0
  6
CONTINUOUS
 62
     7
 10
0.0000000000000934
 20
0.0000000000001145
 30
0.0
 40
1.041499999999852
 50
51.35382458908484
 51
53.64617541091561
  0
ARC
  5
94
  8
0
  6
CONTINUOUS
 62
     7
 10
0.0230459586350532
 20
1.0389030858556
 30
0.0
 40
0.6666666666670448
 50
336.4943843987099
 51
340.2321354975571
  0
LINE
  5
95
  8
0
  6
CONTINUOUS
 62
     7
 10
0.6092455493000146
 20
0.7263083784854226
 30
0.0
 11
0.6343932841636485
 21
0.7730104533627416
 31
0.0
  0
ARC
  5
96
  8
0
  6
CONTINUOUS
 62
     7
 10
0.0000000000104078
 20
0.0000000000115551
 30
0.0
 40
0.9479999999844492
 50
47.49076142020947
 51
50.00923857981539
  0
LINE
  5
97
  8
0
  6
CONTINUOUS
 62
     7
 10
0.6835923020228825
 20
0.7298640726978427
 30
0.0
 11
0.6405722079449725
 21
0.6988356361895854
 31
0.0
  0
ARC
  5
98
  8
0
  6
CONTINUOUS
 62
     7
 10
1.027007024709946
 20
0.1584528611470956
 30
0.0
 40
0.6666666666664267
 50
117.2678645024424
 51
121.0056156012924
  0
ARC
  5
99
  8
0
  6
CONTINUOUS
 62
     7
 10
0.000000000000014
 20
0.0000000000000108
 30
0.0
 40
1.041499999999983
 50
43.85382458908486
 51
46.14617541091537
  0
ARC
  5
9A
  8
0
  6
CONTINUOUS
 62
     7
 10
0.1584528611467494
 20
1.027007024710123
 30
0.0
 40
0.6666666666668157
 50
328.9943843987093
 51
332.7321354975578
  0
LINE
  5
9B
  8
0
  6
CONTINUOUS
 62
     7
 10
0.6988356361895858
 20
0.6405722079449716
 30
0.0
 11
0.7298640726978396
 21
0.683592302022876
 31
0.0
  0
ARC
  5
9C
  8
0
  6
CONTINUOUS
 62
     7
 10
0.0000000000124254
 20
0.0000000000105624
 30
0.0
 40
0.9479999999836921
 50
39.9907614202112
 51
42.50923857981913
  0
LINE
  5
9D
  8
0
  6
CONTINUOUS
 62
     7
 10
0.7730104533627493
 20
0.6343932841636513
 30
0.0
 11
0.7263083784854229
 21
0.6092455493000137
 31
0.0
  0
ARC
  5
9E
  8
0
  6
CONTINUOUS
 62
     7
 10
1.038903085855442
 20
0.0230459586354919
 30
0.0
 40
0.6666666666665779
 50
109.7678645024429
 51
113.5056156012921
  0
ARC
  5
9F
  8
0
  6
CONTINUOUS
 62
     7
 10
-0.0000000000008814
 20
-0.0000000000006704
 30
0.0
 40
1.041500000001107
 50
36.35382458908568
 51
38.64617541091375
  0
ARC
  5
A0
  8
0
  6
CONTINUOUS
 62
     7
 10
0.2911485912725286
 20
0.9975385886318475
 30
0.0
 40
0.6666666666668855
 50
321.4943843987088
 51
325.2321354975568
  0
LINE
  5
A1
  8
0
  6
CONTINUOUS
 62
     7
 10
0.776468451590112
 20
0.5438756693264154
 30
0.0
 11
0.812846684591619
 21
0.5824776968678056
 31
0.0
  0
ARC
  5
A2
  8
0
  6
CONTINUOUS
 62
     7
 10
0.0000000000119621
 20
0.0000000000077887
 30
0.0
 40
0.9479999999857265
 50
32.49076142020895
 51
35.00923857981151
  0
LINE
  5
A3
  8
0
  6
CONTINUOUS
 62
     7
 10
0.8492021815265911
 20
0.5280678506503718
 30
0.0
 11
0.7996172112992618
 21
0.509231102147141
 31
0.0
  0
ARC
  5
A4
  8
0
  6
CONTINUOUS
 62
     7
 10
1.033023227163518
 20
-0.1127552666178773
 30
0.0
 40
0.6666666666666713
 50
102.2678645024408
 51
106.0056156012893
  0
ARC
  5
A5
  8
0
  6
CONTINUOUS
 62
     7
 10
-0.0000000000001809
 20
-0.0000000000001444
 30
0.0
 40
1.041500000000228
 50
28.85382458908692
 51
31.14617541091688
  0
ARC
  5
A6
  8
0
  6
CONTINUOUS
 62
     7
 10
0.4188626882801141
 20
0.9510019907320153
 30
0.0
 40
0.6666666666667861
 50
313.9943843987095
 51
317.7321354975582
  0
LINE
  5
A7
  8
0
  6
CONTINUOUS
 62
     7
 10
0.8408156765062029
 20
0.4378732672148581
 30
0.0
 11
0.8819212643483593
 21
0.4713967368260006
 31
0.0
  0
ARC
  5
A8
  8
0
  6
CONTINUOUS
 62
     7
 10
0.0000000000112127
 20
0.000000000005318
 30
0.0
 40
0.9479999999875906
 50
24.99076142021265
 51
27.50923857981024
  0
LINE
  5
A9
  8
0
  6
CONTINUOUS
 62
     7
 10
0.9108638249211898
 20
0.4127070298043971
 30
0.0
 11
0.859244371931996
 21
0.4005035696509959
 31
0.0
  0
ARC
  5
AA
  8
0
  6
CONTINUOUS
 62
     7
 10
1.00946805464671
 20
-0.2466272179978237
 30
0.0
 40
0.6666666666668456
 50
94.76786450244265
 51
98.50561560129022
  0
ARC
  5
AB
  8
0
  6
CONTINUOUS
 62
     7
 10
-0.0000000000002056
 20
-0.000000000000091
 30
0.0
 40
1.041500000000225
 50
21.35382458908528
 51
23.64617541091529
  0
ARC
  5
AC
  8
0
  6
CONTINUOUS
 62
     7
 10
0.5394099285607024
 20
0.8881934851030013
 30
0.0
 40
0.6666666666664425
 50
306.4943843987074
 51
310.232135497558
  0
LINE
  5
AD
  8
0
  6
CONTINUOUS
 62
     7
 10
0.8907763120791278
 20
0.3243787320998511
 30
0.0
 11
0.9359059267573313
 21
0.3522500479212365
 31
0.0
  0
ARC
  5
AE
  8
0
  6
CONTINUOUS
 62
     7
 10
0.0000000000120691
 20
0.0000000000038662
 30
0.0
 40
0.947999999987327
 50
17.49076142021405
 51
20.00923857981232
  0
LINE
  5
AF
  8
0
  6
CONTINUOUS
 62
     7
 10
0.956940335732222
 20
0.2902846772544628
 30
0.0
 11
0.9041696231334272
 21
0.2849233100375547
 31
0.0
  0
ARC
  5
B0
  8
0
  6
CONTINUOUS
 62
     7
 10
0.9686406038374181
 20
-0.3762793092993325
 30
0.0
 40
0.6666666666664998
 50
87.2678645024413
 51
91.00561560129093
  0
ARC
  5
B1
  8
0
  6
CONTINUOUS
 62
     7
 10
0.0000000000010236
 20
0.0000000000002841
 30
0.0
 40
1.041499999998938
 50
13.85382458908313
 51
16.14617541091586
  0
ARC
  5
B2
  8
0
  6
CONTINUOUS
 62
     7
 10
0.6507277154106583
 20
0.8101877426903443
 30
0.0
 40
0.6666666666664466
 50
298.9943843987087
 51
302.7321354975593
  0
LINE
  5
B3
  8
0
  6
CONTINUOUS
 62
     7
 10
0.9254955179825273
 20
0.2053339869438406
 30
0.0
 11
0.9738769792773379
 21
0.2270762630343747
 31
0.0
  0
ARC
  5
B4
  8
0
  6
CONTINUOUS
 62
     7
 10
0.0000000000123618
 20
0.0000000000022477
 30
0.0
 40
0.9479999999874358
 50
9.990761420213499
 51
12.50923857981148
  0
LINE
  5
B5
  8
0
  6
CONTINUOUS
 62
     7
 10
0.9866433320848919
 20
0.1628954733945876
 30
0.0
 11
0.9336242813998663
 21
0.1644679335937053
 31
0.0
  0
ARC
  5
B6
  8
0
  6
CONTINUOUS
 62
     7
 10
0.9112394437385414
 20
-0.4994931572951517
 30
0.0
 40
0.6666666666669158
 50
79.76786450244283
 51
83.50561560128995
  0
ARC
  5
B7
  8
0
  6
CONTINUOUS
 62
     7
 10
-0.0000000000002758
 20
-0.0000000000000958
 30
0.0
 40
1.041500000000285
 50
6.353824589088345
 51
8.646175410918101
  0
ARC
  5
B8
  8
0
  6
CONTINUOUS
 62
     7
 10
0.7509113706340593
 20
0.7183194633739987
 30
0.0
 40
0.6666666666666798
 50
291.4943843987088
 51
295.2321354975582
  0
LINE
  5
B9
  8
0
  6
CONTINUOUS
 62
     7
 10
0.9443792389774109
 20
0.0827759203418843
 30
0.0
 11
0.9951847266722009
 21
0.0980171403295615
 31
0.0
  0
ARC
  5
BA
  8
0
  6
CONTINUOUS
 62
     7
 10
0.0000000000141203
 20
0.0000000000006435
 30
0.0
 40
0.947999999985865
 50
2.490761420215992
 51
5.009238579818099
  0
LINE
  5
BB
  8
0
  6
CONTINUOUS
 62
     7
 10
0.9994645874763766
 20
0.0327190828217736
 30
0.0
 11
0.9471043693620003
 21
0.0411984652069418
 31
0.0
  0
ARC
  5
BC
  8
0
  6
CONTINUOUS
 62
     7
 10
0.8382467241140106
 20
-0.6141605388835556
 30
0.0
 40
0.6666666666669
 50
72.26786450244332
 51
76.0056156012908
  0
ARC
  5
BD
  8
0
  6
CONTINUOUS
 62
     7
 10
-0.0000000000009999
 20
-0.0000000000000116
 30
0.0
 40
1.041500000001
 50
358.8538245890865
 51
1.146175410914793
  0
ARC
  5
BE
  8
0
  6
CONTINUOUS
 62
     7
 10
0.8382467241141574
 20
0.6141605388830509
 30
0.0
 40
0.6666666666663758
 50
283.9943843987068
 51
287.7321354975579
  0
LINE
  5
BF
  8
0
  6
CONTINUOUS
 62
     7
 10
0.947104369362
 20
-0.0411984652069426
 30
0.0
 11
0.9994645874763692
 21
-0.0327190828217759
 31
0.0
  0
ARC
  5
C0
  8
0
  6
CONTINUOUS
 62
     7
 10
0.0000000000134353
 20
-0.0000000000010283
 30
0.0
 40
0.9479999999865262
 50
354.9907614202087
 51
357.5092385798091
  0
LINE
  5
C1
  8
0
  6
CONTINUOUS
 62
     7
 10
0.9951847266722073
 20
-0.0980171403295645
 30
0.0
 11
0.9443792389774109
 21
-0.0827759203418851
 31
0.0
  0
ARC
  5
C2
  8
0
  6
CONTINUOUS
 62
     7
 10
0.7509113706340452
 20
-0.7183194633740294
 30
0.0
 40
0.6666666666667133
 50
64.7678645024418
 51
68.50561560129046
  0
ARC
  5
C3
  8
0
  6
CONTINUOUS
 62
     7
 10
-0.0000000000000957
 20
0.0000000000000321
 30
0.0
 40
1.041500000000099
 50
351.3538245890838
 51
353.6461754109141
  0
ARC
  5
C4
  8
0
  6
CONTINUOUS
 62
     7
 10
0.911239443738594
 20
0.4994931572947871
 30
0.0
 40
0.666666666666548
 50
276.4943843987084
 51
280.2321354975584
  0
LINE
  5
C5
  8
0
  6
CONTINUOUS
 62
     7
 10
0.9336242813998658
 20
-0.1644679335937061
 30
0.0
 11
0.9866433320848839
 21
-0.1628954733945889
 31
0.0
  0
ARC
  5
C6
  8
0
  6
CONTINUOUS
 62
     7
 10
0.0000000000095011
 20
-0.0000000000020862
 30
0.0
 40
0.9479999999902727
 50
347.4907614202164
 51
350.0092385798068
  0
LINE
  5
C7
  8
0
  6
CONTINUOUS
 62
     7
 10
0.9738769792773424
 20
-0.2270762630343779
 30
0.0
 11
0.9254955179825274
 21
-0.2053339869438413
 31
0.0
  0
ARC
  5
C8
  8
0
  6
CONTINUOUS
 62
     7
 10
0.6507277154104649
 20
-0.8101877426907129
 30
0.0
 40
0.6666666666668613
 50
57.2678645024438
 51
61.00561560129165
  0
ARC
  5
C9
  8
0
  6
CONTINUOUS
 62
     7
 10
0.0000000000012546
 20
-0.0000000000003303
 30
0.0
 40
1.041499999998703
 50
343.8538245890831
 51
346.1461754109163
  0
ARC
  5
CA
  8
0
  6
CONTINUOUS
 62
     7
 10
0.9686406038374122
 20
0.3762793092995501
 30
0.0
 40
0.6666666666667177
 50
268.9943843987093
 51
272.7321354975583
  0
LINE
  5
CB
  8
0
  6
CONTINUOUS
 62
     7
 10
0.9041696231334263
 20
-0.2849233100375554
 30
0.0
 11
0.9569403357322142
 21
-0.2902846772544632
 31
0.0
  0
ARC
  5
CC
  8
0
  6
CONTINUOUS
 62
     7
 10
0.0000000000099346
 20
-0.0000000000035905
 30
0.0
 40
0.9479999999894366
 50
339.9907614202161
 51
342.5092385798088
  0
LINE
  5
CD
  8
0
  6
CONTINUOUS
 62
     7
 10
0.9359059267573339
 20
-0.3522500479212394
 30
0.0
 11
0.8907763120791282
 21
-0.3243787320998522
 31
0.0
  0
ARC
  5
CE
  8
0
  6
CONTINUOUS
 62
     7
 10
0.5394099285607774
 20
-0.8881934851028891
 30
0.0
 40
0.6666666666663068
 50
49.76786450244069
 51
53.50561560129164
  0
ARC
  5
CF
  8
0
  6
CONTINUOUS
 62
     7
 10
0.0000000000007609
 20
-0.0000000000003224
 30
0.0
 40
1.041499999999174
 50
336.3538245890842
 51
338.6461754109165
  0
ARC
  5
D0
  8
0
  6
CONTINUOUS
 62
     7
 10
1.009468054646714
 20
0.2466272179977885
 30
0.0
 40
0.6666666666668121
 50
261.4943843987082
 51
265.2321354975568
  0
LINE
  5
D1
  8
0
  6
CONTINUOUS
 62
     7
 10
0.8592443719319948
 20
-0.4005035696509964
 30
0.0
 11
0.9108638249211805
 21
-0.4127070298043961
 31
0.0
  0
ARC
  5
D2
  8
0
  6
CONTINUOUS
 62
     7
 10
0.0000000000120337
 20
-0.0000000000062114
 30
0.0
 40
0.9479999999864577
 50
332.4907614202147
 51
335.0092385798153
  0
LINE
  5
D3
  8
0
  6
CONTINUOUS
 62
     7
 10
0.8819212643483625
 20
-0.4713967368260047
 30
0.0
 11
0.8408156765062032
 21
-0.4378732672148593
 31
0.0
  0
ARC
  5
D4
  8
0
  6
CONTINUOUS
 62
     7
 10
0.4188626882803277
 20
-0.9510019907318174
 30
0.0
 40
0.6666666666664943
 50
42.26786450244153
 51
46.00561560129144
  0
ARC
  5
D5
  8
0
  6
CONTINUOUS
 62
     7
 10
-0.0000000000005476
 20
0.0000000000003182
 30
0.0
 40
1.041500000000633
 50
328.8538245890854
 51
331.1461754109145
  0
ARC
  5
D6
  8
0
  6
CONTINUOUS
 62
     7
 10
1.033023227163438
 20
0.1127552666175057
 30
0.0
 40
0.6666666666662915
 50
253.9943843987078
 51
257.7321354975593
  0
LINE
  5
D7
  8
0
  6
CONTINUOUS
 62
     7
 10
0.7996172112992603
 20
-0.5092311021471414
 30
0.0
 11
0.8492021815265834
 21
-0.5280678506503701
 31
0.0
  0
ARC
  5
D8
  8
0
  6
CONTINUOUS
 62
     7
 10
0.0000000000088015
 20
-0.0000000000061362
 30
0.0
 40
0.9479999999892705
 50
324.9907614202162
 51
327.5092385798094
  0
LINE
  5
D9
  8
0
  6
CONTINUOUS
 62
     7
 10
0.8128466845916218
 20
-0.5824776968678102
 30
0.0
 11
0.7764684515901106
 21
-0.5438756693264151
 31
0.0
  0
ARC
  5
DA
  8
0
  6
CONTINUOUS
 62
     7
 10
0.2911485912729902
 20
-0.9975385886314615
 30
0.0
 40
0.6666666666662848
 50
34.76786450243858
 51
38.50561560128958
  0
ARC
  5
DB
  8
0
  6
CONTINUOUS
 62
     7
 10
-0.0000000000003002
 20
0.0000000000001961
 30
0.0
 40
1.041500000000357
 50
321.3538245890866
 51
323.6461754109163
  0
ARC
  5
DC
  8
0
  6
CONTINUOUS
 62
     7
 10
1.038903085855563
 20
-0.0230459586351497
 30
0.0
 40
0.6666666666669414
 50
246.4943843987095
 51
250.2321354975572
  0
LINE
  5
DD
  8
0
  6
CONTINUOUS
 62
     7
 10
0.726308378485423
 20
-0.609245549300015
 30
0.0
 11
0.7730104533627423
 21
-0.6343932841636487
 31
0.0
  0
ARC
  5
DE
  8
0
  6
CONTINUOUS
 62
     7
 10
0.0000000000068093
 20
-0.0000000000061819
 30
0.0
 40
0.9479999999908032
 50
317.490761420215
 51
320.0092385798041
  0
LINE
  5
DF
  8
0
  6
CONTINUOUS
 62
     7
 10
0.7298640726978426
 20
-0.6835923020228821
 30
0.0
 11
0.6988356361895857
 21
-0.6405722079449725
 31
0.0
  0
ARC
  5
E0
  8
0
  6
CONTINUOUS
 62
     7
 10
0.1584528611468576
 20
-1.02700702471007
 30
0.0
 40
0.6666666666666947
 50
27.26786450244255
 51
31.00561560129102
  0
ARC
  5
E1
  8
0
  6
CONTINUOUS
 62
     7
 10
-0.0000000000004056
 20
0.0000000000003775
 30
0.0
 40
1.041500000000553
 50
313.8538245890865
 51
316.1461754109157
  0
ARC
  5
E2
  8
0
  6
CONTINUOUS
 62
     7
 10
1.027007024710045
 20
-0.1584528611468772
 30
0.0
 40
0.6666666666666663
 50
238.9943843987093
 51
242.7321354975587
  0
LINE
  5
E3
  8
0
  6
CONTINUOUS
 62
     7
 10
0.6405722079449719
 20
-0.6988356361895861
 30
0.0
 11
0.6835923020228756
 21
-0.7298640726978392
 31
0.0
  0
ARC
  5
E4
  8
0
  6
CONTINUOUS
 62
     7
 10
0.0000000000063008
 20
-0.0000000000073994
 30
0.0
 40
0.9479999999902817
 50
309.9907614202133
 51
312.5092385798038
  0
LINE
  5
E5
  8
0
  6
CONTINUOUS
 62
     7
 10
0.6343932841636508
 20
-0.7730104533627481
 30
0.0
 11
0.6092455493000142
 21
-0.7263083784854229
 31
0.0
  0
ARC
  5
E6
  8
0
  6
CONTINUOUS
 62
     7
 10
0.0230459586354069
 20
-1.038903085855472
 30
0.0
 40
0.6666666666666679
 50
19.76786450244282
 51
23.5056156012916
  0
ARC
  5
E7
  8
0
  6
CONTINUOUS
 62
     7
 10
-0.0000000000008989
 20
0.0000000000012006
 30
0.0
 40
1.0415000000015
 50
306.3538245890854
 51
308.6461754109126
  0
ARC
  5
E8
  8
0
  6
CONTINUOUS
 62
     7
 10
0.9975385886318258
 20
-0.2911485912725434
 30
0.0
 40
0.66666666666686
 50
231.4943843987094
 51
235.2321354975576
  0
LINE
  5
E9
  8
0
  6
CONTINUOUS
 62
     7
 10
0.5438756693264139
 20
-0.7764684515901107
 30
0.0
 11
0.5824776968678056
 21
-0.8128466845916188
 31
0.0
  0
ARC
  5
EA
  8
0
  6
CONTINUOUS
 62
     7
 10
0.0000000000062677
 20
-0.0000000000097943
 30
0.0
 40
0.9479999999883719
 50
302.4907614202161
 51
305.0092385798116
  0
LINE
  5
EB
  8
0
  6
CONTINUOUS
 62
     7
 10
0.5280678506503711
 20
-0.8492021815265888
 30
0.0
 11
0.5092311021471412
 21
-0.7996172112992614
 31
0.0
  0
ARC
  5
EC
  8
0
  6
CONTINUOUS
 62
     7
 10
-0.1127552666179776
 20
-1.033023227163562
 30
0.0
 40
0.6666666666667785
 50
12.26786450244249
 51
16.00561560129075
  0
ARC
  5
ED
  8
0
  6
CONTINUOUS
 62
     7
 10
0.0000000000000239
 20
-0.000000000000044
 30
0.0
 40
1.04149999999995
 50
298.8538245890848
 51
301.1461754109154
  0
ARC
  5
EE
  8
0
  6
CONTINUOUS
 62
     7
 10
0.9510019907317593
 20
-0.4188626882804005
 30
0.0
 40
0.6666666666664028
 50
223.9943843987071
 51
227.732135497558
  0
LINE
  5
EF
  8
0
  6
CONTINUOUS
 62
     7
 10
0.4378732672148594
 20
-0.8408156765062046
 30
0.0
 11
0.471396736826001
 21
-0.8819212643483596
 31
0.0
  0
ARC
  5
F0
  8
0
  6
CONTINUOUS
 62
     7
 10
0.0000000000036985
 20
-0.0000000000077981
 30
0.0
 40
0.9479999999913695
 50
294.9907614202141
 51
297.5092385798017
  0
LINE
  5
F1
  8
0
  6
CONTINUOUS
 62
     7
 10
0.4127070298043968
 20
-0.9108638249211876
 30
0.0
 11
0.4005035696509961
 21
-0.8592443719319958
 31
0.0
  0
ARC
  5
F2
  8
0
  6
CONTINUOUS
 62
     7
 10
-0.246627217997918
 20
-1.009468054646717
 30
0.0
 40
0.6666666666669401
 50
4.767864502442381
 51
8.505615601289801
  0
ARC
  5
F3
  8
0
  6
CONTINUOUS
 62
     7
 10
-0.0000000000002374
 20
0.0000000000006788
 30
0.0
 40
1.041500000000719
 50
291.3538245890833
 51
293.6461754109123
  0
ARC
  5
F4
  8
0
  6
CONTINUOUS
 62
     7
 10
0.8881934851031696
 20
-0.5394099285605775
 30
0.0
 40
0.6666666666666519
 50
216.4943843987076
 51
220.2321354975569
  0
LINE
  5
F5
  8
0
  6
CONTINUOUS
 62
     7
 10
0.3243787320998514
 20
-0.8907763120791281
 30
0.0
 11
0.3522500479212368
 21
-0.9359059267573315
 31
0.0
  0
ARC
  5
F6
  8
0
  6
CONTINUOUS
 62
     7
 10
0.0000000000028168
 20
-0.0000000000088205
 30
0.0
 40
0.9479999999907407
 50
287.4907614202155
 51
290.0092385798048
  0
LINE
  5
F7
  8
0
  6
CONTINUOUS
 62
     7
 10
0.2902846772544629
 20
-0.9569403357322202
 30
0.0
 11
0.2849233100375549
 21
-0.904169623133427
 31
0.0
  0
ARC
  5
F8
  8
0
  6
CONTINUOUS
 62
     7
 10
-0.3762793092993804
 20
-0.96864060383741
 30
0.0
 40
0.666666666666548
 50
357.2678645024407
 51
1.005615601290401
  0
ARC
  5
F9
  8
0
  6
CONTINUOUS
 62
     7
 10
0.0000000000001014
 20
-0.0000000000003677
 30
0.0
 40
1.041499999999619
 50
283.8538245890842
 51
286.1461754109155
  0
ARC
  5
FA
  8
0
  6
CONTINUOUS
 62
     7
 10
0.8101877426905528
 20
-0.6507277154105426
 30
0.0
 40
0.6666666666666852
 50
208.994384398709
 51
212.732135497558
  0
LINE
  5
FB
  8
0
  6
CONTINUOUS
 62
     7
 10
0.20533398694384
 20
-0.9254955179825258
 30
0.0
 11
0.2270762630343761
 21
-0.9738769792773406
 31
0.0
  0
ARC
  5
FC
  8
0
  6
CONTINUOUS
 62
     7
 10
0.0000000000019582
 20
-0.0000000000107786
 30
0.0
 40
0.9479999999890451
 50
279.9907614202141
 51
282.5092385798079
  0
LINE
  5
FD
  8
0
  6
CONTINUOUS
 62
     7
 10
0.1628954733945877
 20
-0.9866433320848913
 30
0.0
 11
0.1644679335937055
 21
-0.9336242813998661
 31
0.0
  0
ARC
  5
FE
  8
0
  6
CONTINUOUS
 62
     7
 10
-0.4994931572947771
 20
-0.9112394437385907
 30
0.0
 40
0.6666666666665384
 50
349.7678645024413
 51
353.5056156012906
  0
ARC
  5
FF
  8
0
  6
CONTINUOUS
 62
     7
 10
-0.0000000000003136
 20
0.0000000000020055
 30
0.0
 40
1.041500000002028
 50
276.3538245890898
 51
278.6461754109157
  0
ARC
  5
100
  8
0
  6
CONTINUOUS
 62
     7
 10
0.7183194633740744
 20
-0.7509113706340174
 30
0.0
 40
0.6666666666667658
 50
201.49438439871
 51
205.2321354975586
  0
LINE
  5
101
  8
0
  6
CONTINUOUS
 62
     7
 10
0.0827759203418842
 20
-0.9443792389774103
 30
0.0
 11
0.0980171403295623
 21
-0.9951847266722034
 31
0.0
  0
ARC
  5
102
  8
0
  6
CONTINUOUS
 62
     7
 10
0.0000000000004362
 20
-0.000000000009679
 30
0.0
 40
0.9479999999903112
 50
272.4907614202168
 51
275.0092385798071
  0
LINE
  5
103
  8
0
  6
CONTINUOUS
 62
     7
 10
0.0327190828217737
 20
-0.9994645874763768
 30
0.0
 11
0.041198465206942
 21
-0.9471043693620004
 31
0.0
  0
ARC
  5
104
  8
0
  6
CONTINUOUS
 62
     7
 10
-0.6141605388833943
 20
-0.8382467241140402
 30
0.0
 40
0.6666666666667374
 50
342.2678645024415
 51
346.0056156012899
  0
ARC
  5
105
  8
0
  6
CONTINUOUS
 62
     7
 10
0.0000000000000331
 20
-0.0000000000001417
 30
0.0
 40
1.041499999999859
 50
268.8538245890828
 51
271.1461754109135
  0
ARC
  5
106
  8
0
  6
CONTINUOUS
 62
     7
 10
0.6141605388834877
 20
-0.8382467241140184
 30
0.0
 40
0.6666666666668333
 50
193.9943843987095
 51
197.7321354975578
  0
LINE
  5
107
  8
0
  6
CONTINUOUS
 62
     7
 10
-0.0411984652069426
 20
-0.9471043693619993
 30
0.0
 11
-0.0327190828217753
 21
-0.9994645874763717
 31
0.0
  0
ARC
  5
108
  8
0
  6
CONTINUOUS
 62
     7
 10
-0.0000000000008842
 20
-0.0000000000108167
 30
0.0
 40
0.9479999999891473
 50
264.9907614202139
 51
267.5092385798073
  0
LINE
  5
109
  8
0
  6
CONTINUOUS
 62
     7
 10
-0.0980171403295639
 20
-0.9951847266722058
 30
0.0
 11
-0.0827759203418849
 21
-0.9443792389774108
 31
0.0
  0
ARC
  5
10A
  8
0
  6
CONTINUOUS
 62
     7
 10
-0.7183194633740692
 20
-0.7509113706340447
 30
0.0
 40
0.6666666666667493
 50
334.7678645024434
 51
338.5056156012917
  0
ARC
  5
10B
  8
0
  6
CONTINUOUS
 62
     7
 10
-0.0000000000000775
 20
-0.0000000000005329
 30
0.0
 40
1.041499999999461
 50
261.3538245890846
 51
263.6461754109162
  0
ARC
  5
10C
  8
0
  6
CONTINUOUS
 62
     7
 10
0.4994931572944816
 20
-0.911239443738633
 30
0.0
 40
0.6666666666662401
 50
186.4943843987081
 51
190.2321354975599
  0
LINE
  5
10D
  8
0
  6
CONTINUOUS
 62
     7
 10
-0.164467933593706
 20
-0.9336242813998653
 30
0.0
 11
-0.1628954733945887
 21
-0.986643332084884
 31
0.0
  0
ARC
  5
10E
  8
0
  6
CONTINUOUS
 62
     7
 10
-0.0000000000019858
 20
-0.0000000000086972
 30
0.0
 40
0.947999999991079
 50
257.490761420221
 51
260.0092385798093
  0
LINE
  5
10F
  8
0
  6
CONTINUOUS
 62
     7
 10
-0.2270762630343776
 20
-0.9738769792773422
 30
0.0
 11
-0.2053339869438411
 21
-0.9254955179825271
 31
0.0
  0
ARC
  5
110
  8
0
  6
CONTINUOUS
 62
     7
 10
-0.8101877426903557
 20
-0.6507277154106533
 30
0.0
 40
0.6666666666664587
 50
327.2678645024409
 51
331.0056156012909
  0
ARC
  5
111
  8
0
  6
CONTINUOUS
 62
     7
 10
-0.000000000000034
 20
-0.0000000000000484
 30
0.0
 40
1.041499999999944
 50
253.8538245890858
 51
256.1461754109164
  0
ARC
  5
112
  8
0
  6
CONTINUOUS
 62
     7
 10
0.3762793092994105
 20
-0.9686406038374337
 30
0.0
 40
0.6666666666665783
 50
178.9943843987074
 51
182.732135497557
  0
LINE
  5
113
  8
0
  6
CONTINUOUS
 62
     7
 10
-0.2849233100375553
 20
-0.9041696231334261
 30
0.0
 11
-0.2902846772544632
 21
-0.9569403357322157
 31
0.0
  0
ARC
  5
114
  8
0
  6
CONTINUOUS
 62
     7
 10
-0.0000000000026698
 20
-0.0000000000074144
 30
0.0
 40
0.9479999999921197
 50
249.990761420216
 51
252.5092385798015
  0
LINE
  5
115
  8
0
  6
CONTINUOUS
 62
     7
 10
-0.3522500479212389
 20
-0.9359059267573335
 30
0.0
 11
-0.324378732099852
 21
-0.8907763120791283
 31
0.0
  0
ARC
  5
116
  8
0
  6
CONTINUOUS
 62
     7
 10
-0.8881934851032722
 20
-0.5394099285604646
 30
0.0
 40
0.6666666666668014
 50
319.7678645024413
 51
323.5056156012897
  0
ARC
  5
117
  8
0
  6
CONTINUOUS
 62
     7
 10
-0.0000000000002087
 20
-0.0000000000005657
 30
0.0
 40
1.041499999999398
 50
246.3538245890827
 51
248.6461754109146
  0
ARC
  5
118
  8
0
  6
CONTINUOUS
 62
     7
 10
0.2466272179973524
 20
-1.009468054646667
 30
0.0
 40
0.6666666666663736
 50
171.4943843987067
 51
175.2321354975577
  0
LINE
  5
119
  8
0
  6
CONTINUOUS
 62
     7
 10
-0.4005035696509968
 20
-0.8592443719319962
 30
0.0
 11
-0.412707029804396
 21
-0.9108638249211806
 31
0.0
  0
ARC
  5
11A
  8
0
  6
CONTINUOUS
 62
     7
 10
-0.0000000000037886
 20
-0.0000000000072843
 30
0.0
 40
0.9479999999917894
 50
242.4907614202174
 51
245.0092385798039
  0
LINE
  5
11B
  8
0
  6
CONTINUOUS
 62
     7
 10
-0.4713967368260034
 20
-0.8819212643483613
 30
0.0
 11
-0.4378732672148593
 21
-0.8408156765062034
 31
0.0
  0
ARC
  5
11C
  8
0
  6
CONTINUOUS
 62
     7
 10
-0.9510019907319699
 20
-0.4188626882801633
 30
0.0
 40
0.6666666666667189
 50
312.2678645024417
 51
316.0056156012906
  0
ARC
  5
11D
  8
0
  6
CONTINUOUS
 62
     7
 10
0.0000000000004995
 20
0.0000000000008344
 30
0.0
 40
1.041500000000973
 50
238.853824589085
 51
241.1461754109133
  0
ARC
  5
11E
  8
0
  6
CONTINUOUS
 62
     7
 10
0.1127552666179523
 20
-1.03302322716355
 30
0.0
 40
0.6666666666667516
 50
163.9943843987091
 51
167.7321354975581
  0
LINE
  5
11F
  8
0
  6
CONTINUOUS
 62
     7
 10
-0.5092311021471416
 20
-0.799617211299261
 30
0.0
 11
-0.5280678506503699
 21
-0.8492021815265832
 31
0.0
  0
ARC
  5
120
  8
0
  6
CONTINUOUS
 62
     7
 10
-0.0000000000058037
 20
-0.0000000000084845
 30
0.0
 40
0.9479999999897208
 50
234.9907614202108
 51
237.5092385798027
  0
LINE
  5
121
  8
0
  6
CONTINUOUS
 62
     7
 10
-0.5824776968678092
 20
-0.812846684591621
 30
0.0
 11
-0.5438756693264149
 21
-0.7764684515901106
 31
0.0
  0
ARC
  5
122
  8
0
  6
CONTINUOUS
 62
     7
 10
-0.9975385886318672
 20
-0.2911485912724846
 30
0.0
 40
0.6666666666669315
 50
304.7678645024425
 51
308.5056156012899
  0
ARC
  5
123
  8
0
  6
CONTINUOUS
 62
     7
 10
0.000000000000881
 20
0.0000000000012097
 30
0.0
 40
1.041500000001495
 50
231.3538245890885
 51
233.6461754109157
  0
ARC
  5
124
  8
0
  6
CONTINUOUS
 62
     7
 10
-0.0230459586351695
 20
-1.038903085855556
 30
0.0
 40
0.6666666666669202
 50
156.4943843987093
 51
160.2321354975572
  0
LINE
  5
125
  8
0
  6
CONTINUOUS
 62
     7
 10
-0.6092455493000145
 20
-0.7263083784854222
 30
0.0
 11
-0.6343932841636479
 21
-0.7730104533627412
 31
0.0
  0
ARC
  5
126
  8
0
  6
CONTINUOUS
 62
     7
 10
-0.0000000000052929
 20
-0.0000000000058472
 30
0.0
 40
0.9479999999921132
 50
227.4907614202147
 51
230.0092385798002
  0
LINE
  5
127
  8
0
  6
CONTINUOUS
 62
     7
 10
-0.6835923020228796
 20
-0.7298640726978409
 30
0.0
 11
-0.6405722079449724
 21
-0.6988356361895858
 31
0.0
  0
ARC
  5
128
  8
0
  6
CONTINUOUS
 62
     7
 10
-1.027007024710047
 20
-0.1584528611468873
 30
0.0
 40
0.6666666666666576
 50
297.2678645024419
 51
301.0056156012908
  0
ARC
  5
129
  8
0
  6
CONTINUOUS
 62
     7
 10
-0.0000000000001755
 20
-0.0000000000001815
 30
0.0
 40
1.041499999999748
 50
223.8538245890843
 51
226.1461754109153
  0
ARC
  5
12A
  8
0
  6
CONTINUOUS
 62
     7
 10
-0.1584528611468309
 20
-1.027007024710063
 30
0.0
 40
0.6666666666667148
 50
148.9943843987101
 51
152.7321354975591
  0
LINE
  5
12B
  8
0
  6
CONTINUOUS
 62
     7
 10
-0.6988356361895858
 20
-0.6405722079449715
 30
0.0
 11
-0.7298640726978388
 21
-0.6835923020228755
 31
0.0
  0
ARC
  5
12C
  8
0
  6
CONTINUOUS
 62
     7
 10
-0.0000000000063762
 20
-0.0000000000054516
 30
0.0
 40
0.9479999999916111
 50
219.9907614202129
 51
222.5092385797998
  0
LINE
  5
12D
  8
0
  6
CONTINUOUS
 62
     7
 10
-0.7730104533627433
 20
-0.6343932841636484
 30
0.0
 11
-0.7263083784854224
 21
-0.6092455493000142
 31
0.0
  0
ARC
  5
12E
  8
0
  6
CONTINUOUS
 62
     7
 10
-1.038903085855428
 20
-0.0230459586354893
 30
0.0
 40
0.6666666666665755
 50
289.7678645024417
 51
293.5056156012914
  0
ARC
  5
12F
  8
0
  6
CONTINUOUS
 62
     7
 10
-0.000000000000398
 20
-0.0000000000003156
 30
0.0
 40
1.041499999999492
 50
216.3538245890838
 51
218.6461754109153
  0
ARC
  5
130
  8
0
  6
CONTINUOUS
 62
     7
 10
-0.2911485912726091
 20
-0.9975385886317689
 30
0.0
 40
0.6666666666667732
 50
141.4943843987098
 51
145.2321354975584
  0
LINE
  5
131
  8
0
  6
CONTINUOUS
 62
     7
 10
-0.7764684515901111
 20
-0.5438756693264145
 30
0.0
 11
-0.8128466845916195
 21
-0.5824776968678066
 31
0.0
  0
ARC
  5
132
  8
0
  6
CONTINUOUS
 62
     7
 10
-0.0000000000047462
 20
-0.0000000000030431
 30
0.0
 40
0.9479999999943622
 50
212.4907614202166
 51
215.0092385797962
  0
LINE
  5
133
  8
0
  6
CONTINUOUS
 62
     7
 10
-0.8492021815265866
 20
-0.5280678506503703
 30
0.0
 11
-0.7996172112992616
 21
-0.5092311021471414
 31
0.0
  0
ARC
  5
134
  8
0
  6
CONTINUOUS
 62
     7
 10
-1.033023227163584
 20
0.1127552666180909
 30
0.0
 40
0.6666666666668941
 50
282.2678645024422
 51
286.0056156012902
  0
ARC
  5
135
  8
0
  6
CONTINUOUS
 62
     7
 10
0.0000000000012567
 20
0.0000000000006943
 30
0.0
 40
1.041500000001436
 50
208.8538245890849
 51
211.1461754109122
  0
ARC
  5
136
  8
0
  6
CONTINUOUS
 62
     7
 10
-0.4188626882799393
 20
-0.9510019907321728
 30
0.0
 40
0.6666666666670206
 50
133.9943843987111
 51
137.7321354975583
  0
LINE
  5
137
  8
0
  6
CONTINUOUS
 62
     7
 10
-0.8408156765062026
 20
-0.4378732672148579
 30
0.0
 11
-0.8819212643483608
 21
-0.4713967368260024
 31
0.0
  0
ARC
  5
138
  8
0
  6
CONTINUOUS
 62
     7
 10
-0.0000000000057366
 20
-0.0000000000027451
 30
0.0
 40
0.9479999999936407
 50
204.9907614202138
 51
207.5092385797953
  0
LINE
  5
139
  8
0
  6
CONTINUOUS
 62
     7
 10
-0.9108638249211832
 20
-0.4127070298043961
 30
0.0
 11
-0.8592443719319955
 21
-0.4005035696509962
 31
0.0
  0
ARC
  5
13A
  8
0
  6
CONTINUOUS
 62
     7
 10
-1.009468054646712
 20
0.2466272179978911
 30
0.0
 40
0.666666666666913
 50
274.7678645024423
 51
278.5056156012902
  0
ARC
  5
13B
  8
0
  6
CONTINUOUS
 62
     7
 10
-0.0000000000002702
 20
-0.0000000000001209
 30
0.0
 40
1.041499999999705
 50
201.353824589084
 51
203.6461754109151
  0
ARC
  5
13C
  8
0
  6
CONTINUOUS
 62
     7
 10
-0.5394099285605762
 20
-0.8881934851031155
 30
0.0
 40
0.6666666666666088
 50
126.4943843987103
 51
130.23213549756
  0
LINE
  5
13D
  8
0
  6
CONTINUOUS
 62
     7
 10
-0.890776312079128
 20
-0.3243787320998513
 30
0.0
 11
-0.9359059267573306
 21
-0.3522500479212366
 31
0.0
  0
ARC
  5
13E
  8
0
  6
CONTINUOUS
 62
     7
 10
-0.0000000000075507
 20
-0.0000000000024837
 30
0.0
 40
0.9479999999920517
 50
197.4907614202116
 51
200.0092385797974
  0
LINE
  5
13F
  8
0
  6
CONTINUOUS
 62
     7
 10
-0.9569403357322172
 20
-0.2902846772544628
 30
0.0
 11
-0.9041696231334268
 21
-0.2849233100375551
 31
0.0
  0
ARC
  5
140
  8
0
  6
CONTINUOUS
 62
     7
 10
-0.9686406038374154
 20
0.3762793093000311
 30
0.0
 40
0.6666666666671975
 50
267.2678645024438
 51
271.0056156012901
  0
ARC
  5
141
  8
0
  6
CONTINUOUS
 62
     7
 10
-0.0000000000009823
 20
-0.0000000000002897
 30
0.0
 40
1.041499999998977
 50
193.8538245890822
 51
196.146175410915
  0
ARC
  5
142
  8
0
  6
CONTINUOUS
 62
     7
 10
-0.6507277154106022
 20
-0.8101877426904669
 30
0.0
 40
0.6666666666665808
 50
118.9943843987078
 51
122.7321354975577
  0
LINE
  5
143
  8
0
  6
CONTINUOUS
 62
     7
 10
-0.9254955179825288
 20
-0.2053339869438415
 30
0.0
 11
-0.9738769792773373
 21
-0.2270762630343748
 31
0.0
  0
ARC
  5
144
  8
0
  6
CONTINUOUS
 62
     7
 10
-0.0000000000040958
 20
-0.0000000000006579
 30
0.0
 40
0.9479999999958522
 50
189.9907614202214
 51
192.5092385797971
  0
LINE
  5
145
  8
0
  6
CONTINUOUS
 62
     7
 10
-0.9866433320848868
 20
-0.1628954733945881
 30
0.0
 11
-0.9336242813998662
 21
-0.1644679335937057
 31
0.0
  0
ARC
  5
146
  8
0
  6
CONTINUOUS
 62
     7
 10
-0.9112394437386117
 20
0.4994931572947454
 30
0.0
 40
0.6666666666665033
 50
259.7678645024423
 51
263.5056156012924
  0
ARC
  5
147
  8
0
  6
CONTINUOUS
 62
     7
 10
-0.0000000000004665
 20
-0.0000000000000872
 30
0.0
 40
1.041499999999527
 50
186.3538245890828
 51
188.6461754109143
  0
ARC
  5
148
  8
0
  6
CONTINUOUS
 62
     7
 10
-0.7509113706340376
 20
-0.7183194633740773
 30
0.0
 40
0.6666666666667608
 50
111.4943843987081
 51
115.232135497557
  0
LINE
  5
149
  8
0
  6
CONTINUOUS
 62
     7
 10
-0.9443792389774114
 20
-0.0827759203418845
 30
0.0
 11
-0.9951847266722017
 21
-0.098017140329562
 31
0.0
  0
ARC
  5
14A
  8
0
  6
CONTINUOUS
 62
     7
 10
-0.0000000000034214
 20
-0.0000000000001758
 30
0.0
 40
0.9479999999965743
 50
182.4907614202161
 51
185.0092385797898
  0
LINE
  5
14B
  8
0
  6
CONTINUOUS
 62
     7
 10
-0.9994645874763731
 20
-0.0327190828217745
 30
0.0
 11
-0.9471043693620004
 21
-0.0411984652069421
 31
0.0
  0
ARC
  5
14C
  8
0
  6
CONTINUOUS
 62
     7
 10
-0.8382467241139604
 20
0.614160538883712
 30
0.0
 40
0.6666666666670644
 50
252.2678645024432
 51
256.0056156012902
  0
CIRCLE
  5
14D
  8
0
  6
CONTINUOUS
 62
     7
 10
0.0
 20
0.0
 30
0.0
 40
0.1874
  0
LINE
  5
14E
  8
0
  6
MITTE
 62
     3
 10
-0.2356407975118077
 20
0.0
 30
0.0
 11
0.2356407975118077
 21
0.0
 31
0.0
  0
LINE
  5
14F
  8
0
  6
MITTE
 62
     3
 10
0.0
 20
-0.2356407975118077
 30
0.0
 11
0.0
 21
0.2356407975118077
 31
0.0
  0
ATTDEF
  5
150
  8
ATTRIB
 10
0.0
 20
0.0
 30
0.0
 40
1.0
  1
W.M.Berg
  3

  2
Company
 70
     9
  0
ATTDEF
  5
151
  8
ATTRIB
 10
0.0
 20
0.0
 30
0.0
 40
1.0
  1
F24A6-48
  3

  2
NB
 70
     9
  0
ATTDEF
  5
152
  8
ATTRIB
 10
0.0
 20
0.0
 30
0.0
 40
1.0
  1
F24A6 & F24S6
  3

  2
NN
 70
     9
  0
ATTDEF
  5
153
  8
ATTRIB
 10
0.0
 20
0.0
 30
0.0
 40
1.0
  1
Precision Spur Gears - 24 Pitch - 3/8" Bore - 1/4" Face - AGMA Quality 10 - Flat Hubless Style - 20 Pressure Angle
  3

  2
NT
 70
     9
  0
ATTDEF
  5
154
  8
ATTRIB
 10
0.0
 20
0.0
 30
0.0
 40
1.0
  1
F24A6-48
  3

  2
LINA
 70
     9
  0
ATTDEF
  5
155
  8
ATTRIB
 10
0.0
 20
0.0
 30
0.0
 40
1.0
  1
F24A6-48
  3

  2
PN
 70
     9
  0
ATTDEF
  5
156
  8
ATTRIB
 10
0.0
 20
0.0
 30
0.0
 40
1.0
  1
HUBLESS SPUR GEAR
  3

  2
DES
 70
     9
  0
ATTDEF
  5
157
  8
ATTRIB
 10
0.0
 20
0.0
 30
0.0
 40
1.0
  1
Master Inch/Metric Catalog
  3

  2
CN
 70
     9
  0
ATTDEF
  5
158
  8
ATTRIB
 10
0.0
 20
0.0
 30
0.0
 40
1.0
  1
B92
  3

  2
CP
 70
     9
  0
ATTDEF
  5
159
  8
ATTRIB
 10
0.0
 20
0.0
 30
0.0
 40
1.0
  1
2024T4 Aluminum Anodized
  3

  2
MAT
 70
     9
  0
ATTDEF
  5
15A
  8
ATTRIB
 10
0.0
 20
0.0
 30
0.0
 40
1.0
  1
24
  3

  2
DP
 70
     9
  0
ATTDEF
  5
15B
  8
ATTRIB
 10
0.0
 20
0.0
 30
0.0
 40
1.0
  1
20
  3

  2
PA
 70
     9
  0
ATTDEF
  5
15C
  8
ATTRIB
 10
0.0
 20
0.0
 30
0.0
 40
1.0
  1
48
  3

  2
N
 70
     9
  0
ATTDEF
  5
15D
  8
ATTRIB
 10
0.0
 20
0.0
 30
0.0
 40
1.0
  1
2.0000
  3

  2
PD
 70
     9
  0
ATTDEF
  5
15E
  8
ATTRIB
 10
0.0
 20
0.0
 30
0.0
 40
1.0
  1
2.083
  3

  2
OD
 70
     9
  0
ATTDEF
  5
15F
  8
ATTRIB
 10
0.0
 20
0.0
 30
0.0
 40
1.0
  1
0.3748
  3

  2
B
 70
     9
  0
ATTDEF
  5
160
  8
ATTRIB
 10
0.0
 20
0.0
 30
0.0
 40
1.0
  1
1/4
  3

  2
FW
 70
     9
  0
ATTDEF
  5
161
  8
ATTRIB
 10
0.0
 20
0.0
 30
0.0
 40
1.0
  1
0.2500
  3

  2
FW1
 70
     9
  0
ATTDEF
  5
162
  8
ATTRIB
 10
0.0
 20
0.0
 30
0.0
 40
1.0
  1
DUMMY
  3

  2
KT
 70
     9
  0
ENDSEC
  0
EOF
